<?xml version="1.0" standalone="no"?><svg xmlns:xlink="http://www.w3.org/1999/xlink" xmlns="http://www.w3.org/2000/svg" viewBox="0 0 1000 1000.0000000000001" preserveAspectRatio="xMaxYMax slice"><g transform="scale(1.2224938875305624)"><rect x="0" y="0" width="818" height="818" fill="#050609"/><circle cx="31.46" cy="31.46" r="31.46" fill="#312621"/><g transform="translate(125.85,0) scale(3.146) rotate(0)"><path fill-rule="evenodd" clip-rule="evenodd" d="M10 20C15.5228 20 20 15.5228 20 10C20 4.47715 15.5228 0 10 0C4.47715 0 0 4.47715 0 10C0 15.5228 4.47715 20 10 20ZM10 17C13.866 17 17 13.866 17 10C17 6.13401 13.866 3 10 3C6.13401 3 3 6.13401 3 10C3 13.866 6.13401 17 10 17Z" fill="#060609"/></g><g transform="translate(188.77,0) scale(3.146) rotate(0)"><path fill-rule="evenodd" clip-rule="evenodd" d="M10 20C15.5228 20 20 15.5228 20 10C20 4.47715 15.5228 0 10 0C4.47715 0 0 4.47715 0 10C0 15.5228 4.47715 20 10 20ZM10 17C13.866 17 17 13.866 17 10C17 6.13401 13.866 3 10 3C6.13401 3 3 6.13401 3 10C3 13.866 6.13401 17 10 17Z" fill="#4b3426"/></g><rect x="251.69230769230768" y="0" width="62.92307692307692" height="62.92307692307692" fill="#050609"/><circle cx="267.42" cy="15.73" r="15.73" fill="#28201d"/><circle cx="298.88" cy="15.73" r="15.73" fill="#9e765e"/><g transform="translate(251.69,31.46) scale(1.573) rotate(0)"><path fill-rule="evenodd" clip-rule="evenodd" d="M10 20C15.5228 20 20 15.5228 20 10C20 4.47715 15.5228 0 10 0C4.47715 0 0 4.47715 0 10C0 15.5228 4.47715 20 10 20ZM10 17C13.866 17 17 13.866 17 10C17 6.13401 13.866 3 10 3C6.13401 3 3 6.13401 3 10C3 13.866 6.13401 17 10 17Z" fill="#230304"/></g><circle cx="409" cy="31.46" r="31.46" fill="#0b0a0b"/><g transform="translate(440.46,0) scale(3.146) rotate(0)"><path fill-rule="evenodd" clip-rule="evenodd" d="M10 20C15.5228 20 20 15.5228 20 10C20 4.47715 15.5228 0 10 0C4.47715 0 0 4.47715 0 10C0 15.5228 4.47715 20 10 20ZM10 17C13.866 17 17 13.866 17 10C17 6.13401 13.866 3 10 3C6.13401 3 3 6.13401 3 10C3 13.866 6.13401 17 10 17Z" fill="#bb8b6f"/></g><rect x="503.38461538461536" y="0" width="62.92307692307692" height="62.92307692307692" fill="#050609"/><g transform="translate(503.38,0) scale(1.573) rotate(0)"><path fill-rule="evenodd" clip-rule="evenodd" d="M10 20C15.5228 20 20 15.5228 20 10C20 4.47715 15.5228 0 10 0C4.47715 0 0 4.47715 0 10C0 15.5228 4.47715 20 10 20ZM10 17C13.866 17 17 13.866 17 10C17 6.13401 13.866 3 10 3C6.13401 3 3 6.13401 3 10C3 13.866 6.13401 17 10 17Z" fill="#a3a48f"/></g><g transform="translate(534.85,0) scale(1.573) rotate(0)"><path fill-rule="evenodd" clip-rule="evenodd" d="M10 20C15.5228 20 20 15.5228 20 10C20 4.47715 15.5228 0 10 0C4.47715 0 0 4.47715 0 10C0 15.5228 4.47715 20 10 20ZM10 17C13.866 17 17 13.866 17 10C17 6.13401 13.866 3 10 3C6.13401 3 3 6.13401 3 10C3 13.866 6.13401 17 10 17Z" fill="#2c0203"/></g><circle cx="519.11" cy="47.19" r="15.73" fill="#211915"/><rect x="566.3076923076923" y="0" width="62.92307692307692" height="62.92307692307692" fill="#050609"/><g transform="translate(597.77,0) scale(1.573) rotate(0)"><path fill-rule="evenodd" clip-rule="evenodd" d="M10 20C15.5228 20 20 15.5228 20 10C20 4.47715 15.5228 0 10 0C4.47715 0 0 4.47715 0 10C0 15.5228 4.47715 20 10 20ZM10 17C13.866 17 17 13.866 17 10C17 6.13401 13.866 3 10 3C6.13401 3 3 6.13401 3 10C3 13.866 6.13401 17 10 17Z" fill="#353531"/></g><g transform="translate(566.31,31.46) scale(1.573) rotate(0)"><path fill-rule="evenodd" clip-rule="evenodd" d="M10 20C15.5228 20 20 15.5228 20 10C20 4.47715 15.5228 0 10 0C4.47715 0 0 4.47715 0 10C0 15.5228 4.47715 20 10 20ZM10 17C13.866 17 17 13.866 17 10C17 6.13401 13.866 3 10 3C6.13401 3 3 6.13401 3 10C3 13.866 6.13401 17 10 17Z" fill="#100e0f"/></g><g transform="translate(629.23,0) scale(3.146) rotate(0)"><path fill-rule="evenodd" clip-rule="evenodd" d="M10 20C15.5228 20 20 15.5228 20 10C20 4.47715 15.5228 0 10 0C4.47715 0 0 4.47715 0 10C0 15.5228 4.47715 20 10 20ZM10 17C13.866 17 17 13.866 17 10C17 6.13401 13.866 3 10 3C6.13401 3 3 6.13401 3 10C3 13.866 6.13401 17 10 17Z" fill="#1d0305"/></g><circle cx="723.61" cy="31.46" r="31.46" fill="#714d35"/><rect x="62.92307692307692" y="62.92307692307692" width="62.92307692307692" height="62.92307692307692" fill="#050609"/><g transform="translate(62.92,62.92) scale(1.573) rotate(0)"><path fill-rule="evenodd" clip-rule="evenodd" d="M10 20C15.5228 20 20 15.5228 20 10C20 4.47715 15.5228 0 10 0C4.47715 0 0 4.47715 0 10C0 15.5228 4.47715 20 10 20ZM10 17C13.866 17 17 13.866 17 10C17 6.13401 13.866 3 10 3C6.13401 3 3 6.13401 3 10C3 13.866 6.13401 17 10 17Z" fill="#2f0102"/></g><circle cx="110.11" cy="110.11" r="15.73" fill="#63442f"/><g transform="translate(125.85,62.92) scale(3.146) rotate(0)"><path fill-rule="evenodd" clip-rule="evenodd" d="M10 20C15.5228 20 20 15.5228 20 10C20 4.47715 15.5228 0 10 0C4.47715 0 0 4.47715 0 10C0 15.5228 4.47715 20 10 20ZM10 17C13.866 17 17 13.866 17 10C17 6.13401 13.866 3 10 3C6.13401 3 3 6.13401 3 10C3 13.866 6.13401 17 10 17Z" fill="#acac96"/></g><rect x="188.76923076923077" y="62.92307692307692" width="62.92307692307692" height="62.92307692307692" fill="#050609"/><circle cx="235.95999999999998" cy="78.65" r="15.73" fill="#ededce"/><circle cx="204.5" cy="110.11" r="15.73" fill="#35261d"/><g transform="translate(220.23,94.38) scale(1.573) rotate(0)"><path fill-rule="evenodd" clip-rule="evenodd" d="M10 20C15.5228 20 20 15.5228 20 10C20 4.47715 15.5228 0 10 0C4.47715 0 0 4.47715 0 10C0 15.5228 4.47715 20 10 20ZM10 17C13.866 17 17 13.866 17 10C17 6.13401 13.866 3 10 3C6.13401 3 3 6.13401 3 10C3 13.866 6.13401 17 10 17Z" fill="#181413"/></g><rect x="251.69230769230768" y="62.92307692307692" width="62.92307692307692" height="62.92307692307692" fill="#050609"/><g transform="translate(251.69,62.92) scale(1.573) rotate(0)"><path fill-rule="evenodd" clip-rule="evenodd" d="M10 20C15.5228 20 20 15.5228 20 10C20 4.47715 15.5228 0 10 0C4.47715 0 0 4.47715 0 10C0 15.5228 4.47715 20 10 20ZM10 17C13.866 17 17 13.866 17 10C17 6.13401 13.866 3 10 3C6.13401 3 3 6.13401 3 10C3 13.866 6.13401 17 10 17Z" fill="#2a0203"/></g><g transform="translate(283.15,62.92) scale(1.573) rotate(0)"><path fill-rule="evenodd" clip-rule="evenodd" d="M10 20C15.5228 20 20 15.5228 20 10C20 4.47715 15.5228 0 10 0C4.47715 0 0 4.47715 0 10C0 15.5228 4.47715 20 10 20ZM10 17C13.866 17 17 13.866 17 10C17 6.13401 13.866 3 10 3C6.13401 3 3 6.13401 3 10C3 13.866 6.13401 17 10 17Z" fill="#a97e65"/></g><g transform="translate(283.15,94.38) scale(1.573) rotate(0)"><path fill-rule="evenodd" clip-rule="evenodd" d="M10 20C15.5228 20 20 15.5228 20 10C20 4.47715 15.5228 0 10 0C4.47715 0 0 4.47715 0 10C0 15.5228 4.47715 20 10 20ZM10 17C13.866 17 17 13.866 17 10C17 6.13401 13.866 3 10 3C6.13401 3 3 6.13401 3 10C3 13.866 6.13401 17 10 17Z" fill="#b5876b"/></g><g transform="translate(377.54,62.92) scale(3.146) rotate(0)"><path fill-rule="evenodd" clip-rule="evenodd" d="M10 20C15.5228 20 20 15.5228 20 10C20 4.47715 15.5228 0 10 0C4.47715 0 0 4.47715 0 10C0 15.5228 4.47715 20 10 20ZM10 17C13.866 17 17 13.866 17 10C17 6.13401 13.866 3 10 3C6.13401 3 3 6.13401 3 10C3 13.866 6.13401 17 10 17Z" fill="#140407"/></g><rect x="440.46153846153845" y="62.92307692307692" width="62.92307692307692" height="62.92307692307692" fill="#050609"/><g transform="translate(440.46,62.92) scale(1.573) rotate(0)"><path fill-rule="evenodd" clip-rule="evenodd" d="M10 20C15.5228 20 20 15.5228 20 10C20 4.47715 15.5228 0 10 0C4.47715 0 0 4.47715 0 10C0 15.5228 4.47715 20 10 20ZM10 17C13.866 17 17 13.866 17 10C17 6.13401 13.866 3 10 3C6.13401 3 3 6.13401 3 10C3 13.866 6.13401 17 10 17Z" fill="#280203"/></g><g transform="translate(471.92,62.92) scale(1.573) rotate(0)"><path fill-rule="evenodd" clip-rule="evenodd" d="M10 20C15.5228 20 20 15.5228 20 10C20 4.47715 15.5228 0 10 0C4.47715 0 0 4.47715 0 10C0 15.5228 4.47715 20 10 20ZM10 17C13.866 17 17 13.866 17 10C17 6.13401 13.866 3 10 3C6.13401 3 3 6.13401 3 10C3 13.866 6.13401 17 10 17Z" fill="#dfdfc2"/></g><circle cx="456.19" cy="110.11" r="15.73" fill="#886653"/><circle cx="487.65000000000003" cy="110.11" r="15.73" fill="#2f0102"/><rect x="503.38461538461536" y="62.92307692307692" width="62.92307692307692" height="62.92307692307692" fill="#050609"/><circle cx="550.58" cy="78.65" r="15.73" fill="#40312a"/><rect x="629.2307692307692" y="62.92307692307692" width="62.92307692307692" height="62.92307692307692" fill="#050609"/><g transform="translate(629.23,62.92) scale(1.573) rotate(0)"><path fill-rule="evenodd" clip-rule="evenodd" d="M10 20C15.5228 20 20 15.5228 20 10C20 4.47715 15.5228 0 10 0C4.47715 0 0 4.47715 0 10C0 15.5228 4.47715 20 10 20ZM10 17C13.866 17 17 13.866 17 10C17 6.13401 13.866 3 10 3C6.13401 3 3 6.13401 3 10C3 13.866 6.13401 17 10 17Z" fill="#0a0508"/></g><g transform="translate(660.69,62.92) scale(1.573) rotate(0)"><path fill-rule="evenodd" clip-rule="evenodd" d="M10 20C15.5228 20 20 15.5228 20 10C20 4.47715 15.5228 0 10 0C4.47715 0 0 4.47715 0 10C0 15.5228 4.47715 20 10 20ZM10 17C13.866 17 17 13.866 17 10C17 6.13401 13.866 3 10 3C6.13401 3 3 6.13401 3 10C3 13.866 6.13401 17 10 17Z" fill="#382b25"/></g><g transform="translate(660.69,94.38) scale(1.573) rotate(0)"><path fill-rule="evenodd" clip-rule="evenodd" d="M10 20C15.5228 20 20 15.5228 20 10C20 4.47715 15.5228 0 10 0C4.47715 0 0 4.47715 0 10C0 15.5228 4.47715 20 10 20ZM10 17C13.866 17 17 13.866 17 10C17 6.13401 13.866 3 10 3C6.13401 3 3 6.13401 3 10C3 13.866 6.13401 17 10 17Z" fill="#1e1e1e"/></g><g transform="translate(755.08,62.92) scale(3.146) rotate(0)"><path fill-rule="evenodd" clip-rule="evenodd" d="M10 20C15.5228 20 20 15.5228 20 10C20 4.47715 15.5228 0 10 0C4.47715 0 0 4.47715 0 10C0 15.5228 4.47715 20 10 20ZM10 17C13.866 17 17 13.866 17 10C17 6.13401 13.866 3 10 3C6.13401 3 3 6.13401 3 10C3 13.866 6.13401 17 10 17Z" fill="#2f0102"/></g><rect x="0" y="125.84615384615384" width="62.92307692307692" height="62.92307692307692" fill="#050609"/><g transform="translate(31.46,125.85) scale(1.573) rotate(0)"><path fill-rule="evenodd" clip-rule="evenodd" d="M10 20C15.5228 20 20 15.5228 20 10C20 4.47715 15.5228 0 10 0C4.47715 0 0 4.47715 0 10C0 15.5228 4.47715 20 10 20ZM10 17C13.866 17 17 13.866 17 10C17 6.13401 13.866 3 10 3C6.13401 3 3 6.13401 3 10C3 13.866 6.13401 17 10 17Z" fill="#3a2d27"/></g><rect x="62.92307692307692" y="125.84615384615384" width="62.92307692307692" height="62.92307692307692" fill="#050609"/><circle cx="110.11" cy="141.57999999999998" r="15.73" fill="#503d33"/><circle cx="78.65" cy="173.04" r="15.73" fill="#b18469"/><circle cx="110.11" cy="173.04" r="15.73" fill="#d59e7e"/><rect x="125.84615384615384" y="125.84615384615384" width="62.92307692307692" height="62.92307692307692" fill="#050609"/><circle cx="173.04" cy="141.57999999999998" r="15.73" fill="#1b1412"/><circle cx="141.57999999999998" cy="173.04" r="15.73" fill="#300102"/><circle cx="283.15" cy="157.31" r="31.46" fill="#282927"/><rect x="314.6153846153846" y="125.84615384615384" width="62.92307692307692" height="62.92307692307692" fill="#050609"/><circle cx="330.35" cy="141.57999999999998" r="15.73" fill="#4c4d45"/><circle cx="361.81" cy="141.57999999999998" r="15.73" fill="#170406"/><circle cx="361.81" cy="173.04" r="15.73" fill="#360101"/><rect x="377.53846153846155" y="125.84615384615384" width="62.92307692307692" height="62.92307692307692" fill="#050609"/><g transform="translate(377.54,125.85) scale(1.573) rotate(0)"><path fill-rule="evenodd" clip-rule="evenodd" d="M10 20C15.5228 20 20 15.5228 20 10C20 4.47715 15.5228 0 10 0C4.47715 0 0 4.47715 0 10C0 15.5228 4.47715 20 10 20ZM10 17C13.866 17 17 13.866 17 10C17 6.13401 13.866 3 10 3C6.13401 3 3 6.13401 3 10C3 13.866 6.13401 17 10 17Z" fill="#553b2a"/></g><circle cx="424.73" cy="141.57999999999998" r="15.73" fill="#5f412e"/><circle cx="393.27000000000004" cy="173.04" r="15.73" fill="#606156"/><circle cx="424.73" cy="173.04" r="15.73" fill="#06070a"/><rect x="503.38461538461536" y="125.84615384615384" width="62.92307692307692" height="62.92307692307692" fill="#050609"/><circle cx="519.11" cy="141.57999999999998" r="15.73" fill="#606156"/><g transform="translate(534.85,125.85) scale(1.573) rotate(0)"><path fill-rule="evenodd" clip-rule="evenodd" d="M10 20C15.5228 20 20 15.5228 20 10C20 4.47715 15.5228 0 10 0C4.47715 0 0 4.47715 0 10C0 15.5228 4.47715 20 10 20ZM10 17C13.866 17 17 13.866 17 10C17 6.13401 13.866 3 10 3C6.13401 3 3 6.13401 3 10C3 13.866 6.13401 17 10 17Z" fill="#322722"/></g><circle cx="519.11" cy="173.04" r="15.73" fill="#f8f9d7"/><g transform="translate(534.85,157.31) scale(1.573) rotate(0)"><path fill-rule="evenodd" clip-rule="evenodd" d="M10 20C15.5228 20 20 15.5228 20 10C20 4.47715 15.5228 0 10 0C4.47715 0 0 4.47715 0 10C0 15.5228 4.47715 20 10 20ZM10 17C13.866 17 17 13.866 17 10C17 6.13401 13.866 3 10 3C6.13401 3 3 6.13401 3 10C3 13.866 6.13401 17 10 17Z" fill="#1a1412"/></g><rect x="566.3076923076923" y="125.84615384615384" width="62.92307692307692" height="62.92307692307692" fill="#050609"/><g transform="translate(566.31,125.85) scale(1.573) rotate(0)"><path fill-rule="evenodd" clip-rule="evenodd" d="M10 20C15.5228 20 20 15.5228 20 10C20 4.47715 15.5228 0 10 0C4.47715 0 0 4.47715 0 10C0 15.5228 4.47715 20 10 20ZM10 17C13.866 17 17 13.866 17 10C17 6.13401 13.866 3 10 3C6.13401 3 3 6.13401 3 10C3 13.866 6.13401 17 10 17Z" fill="#734f36"/></g><circle cx="613.5" cy="141.57999999999998" r="15.73" fill="#bb8b6f"/><g transform="translate(566.31,157.31) scale(1.573) rotate(0)"><path fill-rule="evenodd" clip-rule="evenodd" d="M10 20C15.5228 20 20 15.5228 20 10C20 4.47715 15.5228 0 10 0C4.47715 0 0 4.47715 0 10C0 15.5228 4.47715 20 10 20ZM10 17C13.866 17 17 13.866 17 10C17 6.13401 13.866 3 10 3C6.13401 3 3 6.13401 3 10C3 13.866 6.13401 17 10 17Z" fill="#2c0203"/></g><g transform="translate(629.23,125.85) scale(3.146) rotate(0)"><path fill-rule="evenodd" clip-rule="evenodd" d="M10 20C15.5228 20 20 15.5228 20 10C20 4.47715 15.5228 0 10 0C4.47715 0 0 4.47715 0 10C0 15.5228 4.47715 20 10 20ZM10 17C13.866 17 17 13.866 17 10C17 6.13401 13.866 3 10 3C6.13401 3 3 6.13401 3 10C3 13.866 6.13401 17 10 17Z" fill="#1f0305"/></g><rect x="188.76923076923077" y="188.76923076923077" width="62.92307692307692" height="62.92307692307692" fill="#050609"/><g transform="translate(220.23,188.77) scale(1.573) rotate(0)"><path fill-rule="evenodd" clip-rule="evenodd" d="M10 20C15.5228 20 20 15.5228 20 10C20 4.47715 15.5228 0 10 0C4.47715 0 0 4.47715 0 10C0 15.5228 4.47715 20 10 20ZM10 17C13.866 17 17 13.866 17 10C17 6.13401 13.866 3 10 3C6.13401 3 3 6.13401 3 10C3 13.866 6.13401 17 10 17Z" fill="#af8268"/></g><rect x="251.69230769230768" y="188.76923076923077" width="62.92307692307692" height="62.92307692307692" fill="#050609"/><circle cx="267.42" cy="235.95999999999998" r="15.73" fill="#43342c"/><circle cx="298.88" cy="235.95999999999998" r="15.73" fill="#856451"/><rect x="314.6153846153846" y="188.76923076923077" width="62.92307692307692" height="62.92307692307692" fill="#050609"/><circle cx="330.35" cy="235.95999999999998" r="15.73" fill="#280203"/><g transform="translate(346.08,220.23) scale(1.573) rotate(0)"><path fill-rule="evenodd" clip-rule="evenodd" d="M10 20C15.5228 20 20 15.5228 20 10C20 4.47715 15.5228 0 10 0C4.47715 0 0 4.47715 0 10C0 15.5228 4.47715 20 10 20ZM10 17C13.866 17 17 13.866 17 10C17 6.13401 13.866 3 10 3C6.13401 3 3 6.13401 3 10C3 13.866 6.13401 17 10 17Z" fill="#5e473b"/></g><rect x="377.53846153846155" y="188.76923076923077" width="62.92307692307692" height="62.92307692307692" fill="#050609"/><g transform="translate(377.54,188.77) scale(1.573) rotate(0)"><path fill-rule="evenodd" clip-rule="evenodd" d="M10 20C15.5228 20 20 15.5228 20 10C20 4.47715 15.5228 0 10 0C4.47715 0 0 4.47715 0 10C0 15.5228 4.47715 20 10 20ZM10 17C13.866 17 17 13.866 17 10C17 6.13401 13.866 3 10 3C6.13401 3 3 6.13401 3 10C3 13.866 6.13401 17 10 17Z" fill="#2d2d2a"/></g><g transform="translate(409,220.23) scale(1.573) rotate(0)"><path fill-rule="evenodd" clip-rule="evenodd" d="M10 20C15.5228 20 20 15.5228 20 10C20 4.47715 15.5228 0 10 0C4.47715 0 0 4.47715 0 10C0 15.5228 4.47715 20 10 20ZM10 17C13.866 17 17 13.866 17 10C17 6.13401 13.866 3 10 3C6.13401 3 3 6.13401 3 10C3 13.866 6.13401 17 10 17Z" fill="#260204"/></g><rect x="566.3076923076923" y="188.76923076923077" width="62.92307692307692" height="62.92307692307692" fill="#050609"/><g transform="translate(597.77,188.77) scale(1.573) rotate(0)"><path fill-rule="evenodd" clip-rule="evenodd" d="M10 20C15.5228 20 20 15.5228 20 10C20 4.47715 15.5228 0 10 0C4.47715 0 0 4.47715 0 10C0 15.5228 4.47715 20 10 20ZM10 17C13.866 17 17 13.866 17 10C17 6.13401 13.866 3 10 3C6.13401 3 3 6.13401 3 10C3 13.866 6.13401 17 10 17Z" fill="#2f2f2c"/></g><circle cx="582.04" cy="235.95999999999998" r="15.73" fill="#211a19"/><g transform="translate(629.23,188.77) scale(3.146) rotate(0)"><path fill-rule="evenodd" clip-rule="evenodd" d="M10 20C15.5228 20 20 15.5228 20 10C20 4.47715 15.5228 0 10 0C4.47715 0 0 4.47715 0 10C0 15.5228 4.47715 20 10 20ZM10 17C13.866 17 17 13.866 17 10C17 6.13401 13.866 3 10 3C6.13401 3 3 6.13401 3 10C3 13.866 6.13401 17 10 17Z" fill="#e1e1c3"/></g><rect x="755.0769230769231" y="188.76923076923077" width="62.92307692307692" height="62.92307692307692" fill="#050609"/><circle cx="770.8100000000001" cy="204.5" r="15.73" fill="#100507"/><circle cx="802.27" cy="204.5" r="15.73" fill="#050609"/><circle cx="770.8100000000001" cy="235.95999999999998" r="15.73" fill="#6c6c60"/><g transform="translate(786.54,220.23) scale(1.573) rotate(0)"><path fill-rule="evenodd" clip-rule="evenodd" d="M10 20C15.5228 20 20 15.5228 20 10C20 4.47715 15.5228 0 10 0C4.47715 0 0 4.47715 0 10C0 15.5228 4.47715 20 10 20ZM10 17C13.866 17 17 13.866 17 10C17 6.13401 13.866 3 10 3C6.13401 3 3 6.13401 3 10C3 13.866 6.13401 17 10 17Z" fill="#332723"/></g><g transform="translate(62.92,251.69) scale(3.146) rotate(0)"><path fill-rule="evenodd" clip-rule="evenodd" d="M10 20C15.5228 20 20 15.5228 20 10C20 4.47715 15.5228 0 10 0C4.47715 0 0 4.47715 0 10C0 15.5228 4.47715 20 10 20ZM10 17C13.866 17 17 13.866 17 10C17 6.13401 13.866 3 10 3C6.13401 3 3 6.13401 3 10C3 13.866 6.13401 17 10 17Z" fill="#1c1716"/></g><circle cx="157.31" cy="283.15" r="31.46" fill="#090a0c"/><rect x="377.53846153846155" y="251.69230769230768" width="62.92307692307692" height="62.92307692307692" fill="#050609"/><circle cx="393.27000000000004" cy="298.88" r="15.73" fill="#350101"/><g transform="translate(409,283.15) scale(1.573) rotate(0)"><path fill-rule="evenodd" clip-rule="evenodd" d="M10 20C15.5228 20 20 15.5228 20 10C20 4.47715 15.5228 0 10 0C4.47715 0 0 4.47715 0 10C0 15.5228 4.47715 20 10 20ZM10 17C13.866 17 17 13.866 17 10C17 6.13401 13.866 3 10 3C6.13401 3 3 6.13401 3 10C3 13.866 6.13401 17 10 17Z" fill="#473124"/></g><g transform="translate(440.46,251.69) scale(3.146) rotate(0)"><path fill-rule="evenodd" clip-rule="evenodd" d="M10 20C15.5228 20 20 15.5228 20 10C20 4.47715 15.5228 0 10 0C4.47715 0 0 4.47715 0 10C0 15.5228 4.47715 20 10 20ZM10 17C13.866 17 17 13.866 17 10C17 6.13401 13.866 3 10 3C6.13401 3 3 6.13401 3 10C3 13.866 6.13401 17 10 17Z" fill="#2c1f19"/></g><rect x="566.3076923076923" y="251.69230769230768" width="62.92307692307692" height="62.92307692307692" fill="#050609"/><circle cx="582.04" cy="267.42" r="15.73" fill="#0a0a0c"/><circle cx="613.5" cy="267.42" r="15.73" fill="#08080a"/><rect x="629.2307692307692" y="251.69230769230768" width="62.92307692307692" height="62.92307692307692" fill="#050609"/><circle cx="644.96" cy="298.88" r="15.73" fill="#b7886d"/><g transform="translate(692.15,251.69) scale(3.146) rotate(0)"><path fill-rule="evenodd" clip-rule="evenodd" d="M10 20C15.5228 20 20 15.5228 20 10C20 4.47715 15.5228 0 10 0C4.47715 0 0 4.47715 0 10C0 15.5228 4.47715 20 10 20ZM10 17C13.866 17 17 13.866 17 10C17 6.13401 13.866 3 10 3C6.13401 3 3 6.13401 3 10C3 13.866 6.13401 17 10 17Z" fill="#370101"/></g><circle cx="786.5400000000001" cy="283.15" r="31.46" fill="#34251c"/><rect x="62.92307692307692" y="314.6153846153846" width="62.92307692307692" height="62.92307692307692" fill="#050609"/><g transform="translate(94.38,314.62) scale(1.573) rotate(0)"><path fill-rule="evenodd" clip-rule="evenodd" d="M10 20C15.5228 20 20 15.5228 20 10C20 4.47715 15.5228 0 10 0C4.47715 0 0 4.47715 0 10C0 15.5228 4.47715 20 10 20ZM10 17C13.866 17 17 13.866 17 10C17 6.13401 13.866 3 10 3C6.13401 3 3 6.13401 3 10C3 13.866 6.13401 17 10 17Z" fill="#180406"/></g><g transform="translate(125.85,314.62) scale(3.146) rotate(0)"><path fill-rule="evenodd" clip-rule="evenodd" d="M10 20C15.5228 20 20 15.5228 20 10C20 4.47715 15.5228 0 10 0C4.47715 0 0 4.47715 0 10C0 15.5228 4.47715 20 10 20ZM10 17C13.866 17 17 13.866 17 10C17 6.13401 13.866 3 10 3C6.13401 3 3 6.13401 3 10C3 13.866 6.13401 17 10 17Z" fill="#a5a590"/></g><circle cx="220.23000000000002" cy="346.08" r="31.46" fill="#c29173"/><rect x="377.53846153846155" y="314.6153846153846" width="62.92307692307692" height="62.92307692307692" fill="#050609"/><g transform="translate(377.54,314.62) scale(1.573) rotate(0)"><path fill-rule="evenodd" clip-rule="evenodd" d="M10 20C15.5228 20 20 15.5228 20 10C20 4.47715 15.5228 0 10 0C4.47715 0 0 4.47715 0 10C0 15.5228 4.47715 20 10 20ZM10 17C13.866 17 17 13.866 17 10C17 6.13401 13.866 3 10 3C6.13401 3 3 6.13401 3 10C3 13.866 6.13401 17 10 17Z" fill="#140407"/></g><g transform="translate(409,314.62) scale(1.573) rotate(0)"><path fill-rule="evenodd" clip-rule="evenodd" d="M10 20C15.5228 20 20 15.5228 20 10C20 4.47715 15.5228 0 10 0C4.47715 0 0 4.47715 0 10C0 15.5228 4.47715 20 10 20ZM10 17C13.866 17 17 13.866 17 10C17 6.13401 13.866 3 10 3C6.13401 3 3 6.13401 3 10C3 13.866 6.13401 17 10 17Z" fill="#0d0e0f"/></g><circle cx="424.73" cy="361.81" r="15.73" fill="#6a6b5f"/><circle cx="471.91999999999996" cy="346.08" r="31.46" fill="#281f1c"/><g transform="translate(503.38,314.62) scale(3.146) rotate(0)"><path fill-rule="evenodd" clip-rule="evenodd" d="M10 20C15.5228 20 20 15.5228 20 10C20 4.47715 15.5228 0 10 0C4.47715 0 0 4.47715 0 10C0 15.5228 4.47715 20 10 20ZM10 17C13.866 17 17 13.866 17 10C17 6.13401 13.866 3 10 3C6.13401 3 3 6.13401 3 10C3 13.866 6.13401 17 10 17Z" fill="#3c3d38"/></g><rect x="566.3076923076923" y="314.6153846153846" width="62.92307692307692" height="62.92307692307692" fill="#050609"/><g transform="translate(566.31,314.62) scale(1.573) rotate(0)"><path fill-rule="evenodd" clip-rule="evenodd" d="M10 20C15.5228 20 20 15.5228 20 10C20 4.47715 15.5228 0 10 0C4.47715 0 0 4.47715 0 10C0 15.5228 4.47715 20 10 20ZM10 17C13.866 17 17 13.866 17 10C17 6.13401 13.866 3 10 3C6.13401 3 3 6.13401 3 10C3 13.866 6.13401 17 10 17Z" fill="#050609"/></g><g transform="translate(566.31,346.08) scale(1.573) rotate(0)"><path fill-rule="evenodd" clip-rule="evenodd" d="M10 20C15.5228 20 20 15.5228 20 10C20 4.47715 15.5228 0 10 0C4.47715 0 0 4.47715 0 10C0 15.5228 4.47715 20 10 20ZM10 17C13.866 17 17 13.866 17 10C17 6.13401 13.866 3 10 3C6.13401 3 3 6.13401 3 10C3 13.866 6.13401 17 10 17Z" fill="#1f1917"/></g><circle cx="660.69" cy="346.08" r="31.46" fill="#57574e"/><circle cx="723.61" cy="346.08" r="31.46" fill="#795339"/><rect x="755.0769230769231" y="314.6153846153846" width="62.92307692307692" height="62.92307692307692" fill="#050609"/><circle cx="770.8100000000001" cy="330.35" r="15.73" fill="#694832"/><g transform="translate(786.54,314.62) scale(1.573) rotate(0)"><path fill-rule="evenodd" clip-rule="evenodd" d="M10 20C15.5228 20 20 15.5228 20 10C20 4.47715 15.5228 0 10 0C4.47715 0 0 4.47715 0 10C0 15.5228 4.47715 20 10 20ZM10 17C13.866 17 17 13.866 17 10C17 6.13401 13.866 3 10 3C6.13401 3 3 6.13401 3 10C3 13.866 6.13401 17 10 17Z" fill="#9c9d89"/></g><circle cx="802.27" cy="361.81" r="15.73" fill="#d09a7a"/><circle cx="31.46" cy="409" r="31.46" fill="#32231b"/><circle cx="94.38" cy="409" r="31.46" fill="#2f0102"/><rect x="251.69230769230768" y="377.53846153846155" width="62.92307692307692" height="62.92307692307692" fill="#050609"/><circle cx="267.42" cy="393.27000000000004" r="15.73" fill="#5a3e2c"/><circle cx="298.88" cy="393.27000000000004" r="15.73" fill="#2b2c29"/><g transform="translate(251.69,409) scale(1.573) rotate(0)"><path fill-rule="evenodd" clip-rule="evenodd" d="M10 20C15.5228 20 20 15.5228 20 10C20 4.47715 15.5228 0 10 0C4.47715 0 0 4.47715 0 10C0 15.5228 4.47715 20 10 20ZM10 17C13.866 17 17 13.866 17 10C17 6.13401 13.866 3 10 3C6.13401 3 3 6.13401 3 10C3 13.866 6.13401 17 10 17Z" fill="#242524"/></g><circle cx="298.88" cy="424.73" r="15.73" fill="#2c0203"/><circle cx="346.08" cy="409" r="31.46" fill="#380001"/><rect x="377.53846153846155" y="377.53846153846155" width="62.92307692307692" height="62.92307692307692" fill="#050609"/><circle cx="393.27000000000004" cy="393.27000000000004" r="15.73" fill="#130507"/><circle cx="424.73" cy="393.27000000000004" r="15.73" fill="#9a735c"/><circle cx="424.73" cy="424.73" r="15.73" fill="#130407"/><g transform="translate(440.46,377.54) scale(3.146) rotate(0)"><path fill-rule="evenodd" clip-rule="evenodd" d="M10 20C15.5228 20 20 15.5228 20 10C20 4.47715 15.5228 0 10 0C4.47715 0 0 4.47715 0 10C0 15.5228 4.47715 20 10 20ZM10 17C13.866 17 17 13.866 17 10C17 6.13401 13.866 3 10 3C6.13401 3 3 6.13401 3 10C3 13.866 6.13401 17 10 17Z" fill="#3a0000"/></g><rect x="503.38461538461536" y="377.53846153846155" width="62.92307692307692" height="62.92307692307692" fill="#050609"/><g transform="translate(534.85,377.54) scale(1.573) rotate(0)"><path fill-rule="evenodd" clip-rule="evenodd" d="M10 20C15.5228 20 20 15.5228 20 10C20 4.47715 15.5228 0 10 0C4.47715 0 0 4.47715 0 10C0 15.5228 4.47715 20 10 20ZM10 17C13.866 17 17 13.866 17 10C17 6.13401 13.866 3 10 3C6.13401 3 3 6.13401 3 10C3 13.866 6.13401 17 10 17Z" fill="#593d2b"/></g><circle cx="550.58" cy="424.73" r="15.73" fill="#8a8b7a"/><g transform="translate(566.31,377.54) scale(3.146) rotate(0)"><path fill-rule="evenodd" clip-rule="evenodd" d="M10 20C15.5228 20 20 15.5228 20 10C20 4.47715 15.5228 0 10 0C4.47715 0 0 4.47715 0 10C0 15.5228 4.47715 20 10 20ZM10 17C13.866 17 17 13.866 17 10C17 6.13401 13.866 3 10 3C6.13401 3 3 6.13401 3 10C3 13.866 6.13401 17 10 17Z" fill="#60422e"/></g><circle cx="660.69" cy="409" r="31.46" fill="#160406"/><g transform="translate(692.15,377.54) scale(3.146) rotate(0)"><path fill-rule="evenodd" clip-rule="evenodd" d="M10 20C15.5228 20 20 15.5228 20 10C20 4.47715 15.5228 0 10 0C4.47715 0 0 4.47715 0 10C0 15.5228 4.47715 20 10 20ZM10 17C13.866 17 17 13.866 17 10C17 6.13401 13.866 3 10 3C6.13401 3 3 6.13401 3 10C3 13.866 6.13401 17 10 17Z" fill="#230304"/></g><rect x="755.0769230769231" y="377.53846153846155" width="62.92307692307692" height="62.92307692307692" fill="#050609"/><circle cx="802.27" cy="393.27000000000004" r="15.73" fill="#340101"/><g transform="translate(755.08,409) scale(1.573) rotate(0)"><path fill-rule="evenodd" clip-rule="evenodd" d="M10 20C15.5228 20 20 15.5228 20 10C20 4.47715 15.5228 0 10 0C4.47715 0 0 4.47715 0 10C0 15.5228 4.47715 20 10 20ZM10 17C13.866 17 17 13.866 17 10C17 6.13401 13.866 3 10 3C6.13401 3 3 6.13401 3 10C3 13.866 6.13401 17 10 17Z" fill="#3b2d27"/></g><circle cx="31.46" cy="471.91999999999996" r="31.46" fill="#4b3426"/><rect x="188.76923076923077" y="440.46153846153845" width="62.92307692307692" height="62.92307692307692" fill="#050609"/><circle cx="204.5" cy="456.19" r="15.73" fill="#616257"/><g transform="translate(220.23,440.46) scale(1.573) rotate(0)"><path fill-rule="evenodd" clip-rule="evenodd" d="M10 20C15.5228 20 20 15.5228 20 10C20 4.47715 15.5228 0 10 0C4.47715 0 0 4.47715 0 10C0 15.5228 4.47715 20 10 20ZM10 17C13.866 17 17 13.866 17 10C17 6.13401 13.866 3 10 3C6.13401 3 3 6.13401 3 10C3 13.866 6.13401 17 10 17Z" fill="#2c2019"/></g><g transform="translate(188.77,471.92) scale(1.573) rotate(0)"><path fill-rule="evenodd" clip-rule="evenodd" d="M10 20C15.5228 20 20 15.5228 20 10C20 4.47715 15.5228 0 10 0C4.47715 0 0 4.47715 0 10C0 15.5228 4.47715 20 10 20ZM10 17C13.866 17 17 13.866 17 10C17 6.13401 13.866 3 10 3C6.13401 3 3 6.13401 3 10C3 13.866 6.13401 17 10 17Z" fill="#42332b"/></g><circle cx="235.95999999999998" cy="487.65000000000003" r="15.73" fill="#c2c2a9"/><circle cx="283.15" cy="471.91999999999996" r="31.46" fill="#856350"/><rect x="314.6153846153846" y="440.46153846153845" width="62.92307692307692" height="62.92307692307692" fill="#050609"/><g transform="translate(314.62,440.46) scale(1.573) rotate(0)"><path fill-rule="evenodd" clip-rule="evenodd" d="M10 20C15.5228 20 20 15.5228 20 10C20 4.47715 15.5228 0 10 0C4.47715 0 0 4.47715 0 10C0 15.5228 4.47715 20 10 20ZM10 17C13.866 17 17 13.866 17 10C17 6.13401 13.866 3 10 3C6.13401 3 3 6.13401 3 10C3 13.866 6.13401 17 10 17Z" fill="#533f35"/></g><circle cx="361.81" cy="456.19" r="15.73" fill="#493325"/><circle cx="330.35" cy="487.65000000000003" r="15.73" fill="#3b2a1f"/><circle cx="361.81" cy="487.65000000000003" r="15.73" fill="#fcfcda"/><g transform="translate(377.54,440.46) scale(3.146) rotate(0)"><path fill-rule="evenodd" clip-rule="evenodd" d="M10 20C15.5228 20 20 15.5228 20 10C20 4.47715 15.5228 0 10 0C4.47715 0 0 4.47715 0 10C0 15.5228 4.47715 20 10 20ZM10 17C13.866 17 17 13.866 17 10C17 6.13401 13.866 3 10 3C6.13401 3 3 6.13401 3 10C3 13.866 6.13401 17 10 17Z" fill="#230304"/></g><rect x="440.46153846153845" y="440.46153846153845" width="62.92307692307692" height="62.92307692307692" fill="#050609"/><circle cx="456.19" cy="456.19" r="15.73" fill="#8c6955"/><circle cx="487.65000000000003" cy="456.19" r="15.73" fill="#0a0a0c"/><circle cx="456.19" cy="487.65000000000003" r="15.73" fill="#1c1d1c"/><g transform="translate(503.38,440.46) scale(3.146) rotate(0)"><path fill-rule="evenodd" clip-rule="evenodd" d="M10 20C15.5228 20 20 15.5228 20 10C20 4.47715 15.5228 0 10 0C4.47715 0 0 4.47715 0 10C0 15.5228 4.47715 20 10 20ZM10 17C13.866 17 17 13.866 17 10C17 6.13401 13.866 3 10 3C6.13401 3 3 6.13401 3 10C3 13.866 6.13401 17 10 17Z" fill="#140407"/></g><circle cx="660.69" cy="471.91999999999996" r="31.46" fill="#15100f"/><rect x="755.0769230769231" y="440.46153846153845" width="62.92307692307692" height="62.92307692307692" fill="#050609"/><g transform="translate(755.08,440.46) scale(1.573) rotate(0)"><path fill-rule="evenodd" clip-rule="evenodd" d="M10 20C15.5228 20 20 15.5228 20 10C20 4.47715 15.5228 0 10 0C4.47715 0 0 4.47715 0 10C0 15.5228 4.47715 20 10 20ZM10 17C13.866 17 17 13.866 17 10C17 6.13401 13.866 3 10 3C6.13401 3 3 6.13401 3 10C3 13.866 6.13401 17 10 17Z" fill="#868676"/></g><g transform="translate(786.54,440.46) scale(1.573) rotate(0)"><path fill-rule="evenodd" clip-rule="evenodd" d="M10 20C15.5228 20 20 15.5228 20 10C20 4.47715 15.5228 0 10 0C4.47715 0 0 4.47715 0 10C0 15.5228 4.47715 20 10 20ZM10 17C13.866 17 17 13.866 17 10C17 6.13401 13.866 3 10 3C6.13401 3 3 6.13401 3 10C3 13.866 6.13401 17 10 17Z" fill="#3d2b20"/></g><circle cx="802.27" cy="487.65000000000003" r="15.73" fill="#141516"/><circle cx="157.31" cy="534.84" r="31.46" fill="#2f211a"/><circle cx="534.84" cy="534.84" r="31.46" fill="#6f5445"/><rect x="566.3076923076923" y="503.38461538461536" width="62.92307692307692" height="62.92307692307692" fill="#050609"/><g transform="translate(566.31,503.38) scale(1.573) rotate(0)"><path fill-rule="evenodd" clip-rule="evenodd" d="M10 20C15.5228 20 20 15.5228 20 10C20 4.47715 15.5228 0 10 0C4.47715 0 0 4.47715 0 10C0 15.5228 4.47715 20 10 20ZM10 17C13.866 17 17 13.866 17 10C17 6.13401 13.866 3 10 3C6.13401 3 3 6.13401 3 10C3 13.866 6.13401 17 10 17Z" fill="#380001"/></g><g transform="translate(566.31,534.85) scale(1.573) rotate(0)"><path fill-rule="evenodd" clip-rule="evenodd" d="M10 20C15.5228 20 20 15.5228 20 10C20 4.47715 15.5228 0 10 0C4.47715 0 0 4.47715 0 10C0 15.5228 4.47715 20 10 20ZM10 17C13.866 17 17 13.866 17 10C17 6.13401 13.866 3 10 3C6.13401 3 3 6.13401 3 10C3 13.866 6.13401 17 10 17Z" fill="#0d0b0c"/></g><circle cx="613.5" cy="550.58" r="15.73" fill="#46362e"/><g transform="translate(629.23,503.38) scale(3.146) rotate(0)"><path fill-rule="evenodd" clip-rule="evenodd" d="M10 20C15.5228 20 20 15.5228 20 10C20 4.47715 15.5228 0 10 0C4.47715 0 0 4.47715 0 10C0 15.5228 4.47715 20 10 20ZM10 17C13.866 17 17 13.866 17 10C17 6.13401 13.866 3 10 3C6.13401 3 3 6.13401 3 10C3 13.866 6.13401 17 10 17Z" fill="#280203"/></g><rect x="692.1538461538461" y="503.38461538461536" width="62.92307692307692" height="62.92307692307692" fill="#050609"/><circle cx="707.88" cy="519.11" r="15.73" fill="#0e0508"/><circle cx="707.88" cy="550.58" r="15.73" fill="#1d0305"/><circle cx="739.35" cy="550.58" r="15.73" fill="#46352d"/><rect x="755.0769230769231" y="503.38461538461536" width="62.92307692307692" height="62.92307692307692" fill="#050609"/><circle cx="770.8100000000001" cy="519.11" r="15.73" fill="#95705a"/><circle cx="802.27" cy="519.11" r="15.73" fill="#2f0102"/><rect x="62.92307692307692" y="566.3076923076923" width="62.92307692307692" height="62.92307692307692" fill="#050609"/><circle cx="78.65" cy="582.04" r="15.73" fill="#360101"/><circle cx="110.11" cy="613.5" r="15.73" fill="#4e3b32"/><rect x="125.84615384615384" y="566.3076923076923" width="62.92307692307692" height="62.92307692307692" fill="#050609"/><g transform="translate(125.85,566.31) scale(1.573) rotate(0)"><path fill-rule="evenodd" clip-rule="evenodd" d="M10 20C15.5228 20 20 15.5228 20 10C20 4.47715 15.5228 0 10 0C4.47715 0 0 4.47715 0 10C0 15.5228 4.47715 20 10 20ZM10 17C13.866 17 17 13.866 17 10C17 6.13401 13.866 3 10 3C6.13401 3 3 6.13401 3 10C3 13.866 6.13401 17 10 17Z" fill="#140407"/></g><circle cx="141.57999999999998" cy="613.5" r="15.73" fill="#6c5243"/><circle cx="173.04" cy="613.5" r="15.73" fill="#b3b49d"/><rect x="251.69230769230768" y="566.3076923076923" width="62.92307692307692" height="62.92307692307692" fill="#050609"/><circle cx="267.42" cy="582.04" r="15.73" fill="#634430"/><circle cx="298.88" cy="582.04" r="15.73" fill="#3e3029"/><g transform="translate(251.69,597.77) scale(1.573) rotate(0)"><path fill-rule="evenodd" clip-rule="evenodd" d="M10 20C15.5228 20 20 15.5228 20 10C20 4.47715 15.5228 0 10 0C4.47715 0 0 4.47715 0 10C0 15.5228 4.47715 20 10 20ZM10 17C13.866 17 17 13.866 17 10C17 6.13401 13.866 3 10 3C6.13401 3 3 6.13401 3 10C3 13.866 6.13401 17 10 17Z" fill="#2a0203"/></g><g transform="translate(314.62,566.31) scale(3.146) rotate(0)"><path fill-rule="evenodd" clip-rule="evenodd" d="M10 20C15.5228 20 20 15.5228 20 10C20 4.47715 15.5228 0 10 0C4.47715 0 0 4.47715 0 10C0 15.5228 4.47715 20 10 20ZM10 17C13.866 17 17 13.866 17 10C17 6.13401 13.866 3 10 3C6.13401 3 3 6.13401 3 10C3 13.866 6.13401 17 10 17Z" fill="#200305"/></g><rect x="377.53846153846155" y="566.3076923076923" width="62.92307692307692" height="62.92307692307692" fill="#050609"/><circle cx="393.27000000000004" cy="582.04" r="15.73" fill="#060709"/><g transform="translate(409,566.31) scale(1.573) rotate(0)"><path fill-rule="evenodd" clip-rule="evenodd" d="M10 20C15.5228 20 20 15.5228 20 10C20 4.47715 15.5228 0 10 0C4.47715 0 0 4.47715 0 10C0 15.5228 4.47715 20 10 20ZM10 17C13.866 17 17 13.866 17 10C17 6.13401 13.866 3 10 3C6.13401 3 3 6.13401 3 10C3 13.866 6.13401 17 10 17Z" fill="#c49274"/></g><g transform="translate(377.54,597.77) scale(1.573) rotate(0)"><path fill-rule="evenodd" clip-rule="evenodd" d="M10 20C15.5228 20 20 15.5228 20 10C20 4.47715 15.5228 0 10 0C4.47715 0 0 4.47715 0 10C0 15.5228 4.47715 20 10 20ZM10 17C13.866 17 17 13.866 17 10C17 6.13401 13.866 3 10 3C6.13401 3 3 6.13401 3 10C3 13.866 6.13401 17 10 17Z" fill="#190406"/></g><circle cx="471.91999999999996" cy="597.77" r="31.46" fill="#0a090c"/><g transform="translate(566.31,566.31) scale(3.146) rotate(0)"><path fill-rule="evenodd" clip-rule="evenodd" d="M10 20C15.5228 20 20 15.5228 20 10C20 4.47715 15.5228 0 10 0C4.47715 0 0 4.47715 0 10C0 15.5228 4.47715 20 10 20ZM10 17C13.866 17 17 13.866 17 10C17 6.13401 13.866 3 10 3C6.13401 3 3 6.13401 3 10C3 13.866 6.13401 17 10 17Z" fill="#797a6c"/></g><rect x="755.0769230769231" y="566.3076923076923" width="62.92307692307692" height="62.92307692307692" fill="#050609"/><g transform="translate(786.54,566.31) scale(1.573) rotate(0)"><path fill-rule="evenodd" clip-rule="evenodd" d="M10 20C15.5228 20 20 15.5228 20 10C20 4.47715 15.5228 0 10 0C4.47715 0 0 4.47715 0 10C0 15.5228 4.47715 20 10 20ZM10 17C13.866 17 17 13.866 17 10C17 6.13401 13.866 3 10 3C6.13401 3 3 6.13401 3 10C3 13.866 6.13401 17 10 17Z" fill="#40413b"/></g><circle cx="770.8100000000001" cy="613.5" r="15.73" fill="#250304"/><circle cx="157.31" cy="660.69" r="31.46" fill="#6f4c34"/><g transform="translate(188.77,629.23) scale(3.146) rotate(0)"><path fill-rule="evenodd" clip-rule="evenodd" d="M10 20C15.5228 20 20 15.5228 20 10C20 4.47715 15.5228 0 10 0C4.47715 0 0 4.47715 0 10C0 15.5228 4.47715 20 10 20ZM10 17C13.866 17 17 13.866 17 10C17 6.13401 13.866 3 10 3C6.13401 3 3 6.13401 3 10C3 13.866 6.13401 17 10 17Z" fill="#130507"/></g><rect x="251.69230769230768" y="629.2307692307692" width="62.92307692307692" height="62.92307692307692" fill="#050609"/><circle cx="267.42" cy="644.96" r="15.73" fill="#858575"/><circle cx="298.88" cy="644.96" r="15.73" fill="#7a5c4b"/><g transform="translate(283.15,660.69) scale(1.573) rotate(0)"><path fill-rule="evenodd" clip-rule="evenodd" d="M10 20C15.5228 20 20 15.5228 20 10C20 4.47715 15.5228 0 10 0C4.47715 0 0 4.47715 0 10C0 15.5228 4.47715 20 10 20ZM10 17C13.866 17 17 13.866 17 10C17 6.13401 13.866 3 10 3C6.13401 3 3 6.13401 3 10C3 13.866 6.13401 17 10 17Z" fill="#1d0305"/></g><g transform="translate(377.54,629.23) scale(3.146) rotate(0)"><path fill-rule="evenodd" clip-rule="evenodd" d="M10 20C15.5228 20 20 15.5228 20 10C20 4.47715 15.5228 0 10 0C4.47715 0 0 4.47715 0 10C0 15.5228 4.47715 20 10 20ZM10 17C13.866 17 17 13.866 17 10C17 6.13401 13.866 3 10 3C6.13401 3 3 6.13401 3 10C3 13.866 6.13401 17 10 17Z" fill="#ccccb2"/></g><circle cx="471.91999999999996" cy="660.69" r="31.46" fill="#3c2a1f"/><circle cx="597.77" cy="660.69" r="31.46" fill="#42332b"/><g transform="translate(0,692.15) scale(3.146) rotate(0)"><path fill-rule="evenodd" clip-rule="evenodd" d="M10 20C15.5228 20 20 15.5228 20 10C20 4.47715 15.5228 0 10 0C4.47715 0 0 4.47715 0 10C0 15.5228 4.47715 20 10 20ZM10 17C13.866 17 17 13.866 17 10C17 6.13401 13.866 3 10 3C6.13401 3 3 6.13401 3 10C3 13.866 6.13401 17 10 17Z" fill="#c89576"/></g><rect x="62.92307692307692" y="692.1538461538461" width="62.92307692307692" height="62.92307692307692" fill="#050609"/><g transform="translate(94.38,692.15) scale(1.573) rotate(0)"><path fill-rule="evenodd" clip-rule="evenodd" d="M10 20C15.5228 20 20 15.5228 20 10C20 4.47715 15.5228 0 10 0C4.47715 0 0 4.47715 0 10C0 15.5228 4.47715 20 10 20ZM10 17C13.866 17 17 13.866 17 10C17 6.13401 13.866 3 10 3C6.13401 3 3 6.13401 3 10C3 13.866 6.13401 17 10 17Z" fill="#493325"/></g><g transform="translate(62.92,723.62) scale(1.573) rotate(0)"><path fill-rule="evenodd" clip-rule="evenodd" d="M10 20C15.5228 20 20 15.5228 20 10C20 4.47715 15.5228 0 10 0C4.47715 0 0 4.47715 0 10C0 15.5228 4.47715 20 10 20ZM10 17C13.866 17 17 13.866 17 10C17 6.13401 13.866 3 10 3C6.13401 3 3 6.13401 3 10C3 13.866 6.13401 17 10 17Z" fill="#533a29"/></g><g transform="translate(94.38,723.62) scale(1.573) rotate(0)"><path fill-rule="evenodd" clip-rule="evenodd" d="M10 20C15.5228 20 20 15.5228 20 10C20 4.47715 15.5228 0 10 0C4.47715 0 0 4.47715 0 10C0 15.5228 4.47715 20 10 20ZM10 17C13.866 17 17 13.866 17 10C17 6.13401 13.866 3 10 3C6.13401 3 3 6.13401 3 10C3 13.866 6.13401 17 10 17Z" fill="#340101"/></g><rect x="188.76923076923077" y="692.1538461538461" width="62.92307692307692" height="62.92307692307692" fill="#050609"/><circle cx="204.5" cy="707.88" r="15.73" fill="#e5e5c7"/><circle cx="235.95999999999998" cy="739.35" r="15.73" fill="#5d463a"/><circle cx="283.15" cy="723.61" r="31.46" fill="#120507"/><rect x="314.6153846153846" y="692.1538461538461" width="62.92307692307692" height="62.92307692307692" fill="#050609"/><g transform="translate(314.62,692.15) scale(1.573) rotate(0)"><path fill-rule="evenodd" clip-rule="evenodd" d="M10 20C15.5228 20 20 15.5228 20 10C20 4.47715 15.5228 0 10 0C4.47715 0 0 4.47715 0 10C0 15.5228 4.47715 20 10 20ZM10 17C13.866 17 17 13.866 17 10C17 6.13401 13.866 3 10 3C6.13401 3 3 6.13401 3 10C3 13.866 6.13401 17 10 17Z" fill="#c99677"/></g><g transform="translate(346.08,692.15) scale(1.573) rotate(0)"><path fill-rule="evenodd" clip-rule="evenodd" d="M10 20C15.5228 20 20 15.5228 20 10C20 4.47715 15.5228 0 10 0C4.47715 0 0 4.47715 0 10C0 15.5228 4.47715 20 10 20ZM10 17C13.866 17 17 13.866 17 10C17 6.13401 13.866 3 10 3C6.13401 3 3 6.13401 3 10C3 13.866 6.13401 17 10 17Z" fill="#060609"/></g><g transform="translate(314.62,723.62) scale(1.573) rotate(0)"><path fill-rule="evenodd" clip-rule="evenodd" d="M10 20C15.5228 20 20 15.5228 20 10C20 4.47715 15.5228 0 10 0C4.47715 0 0 4.47715 0 10C0 15.5228 4.47715 20 10 20ZM10 17C13.866 17 17 13.866 17 10C17 6.13401 13.866 3 10 3C6.13401 3 3 6.13401 3 10C3 13.866 6.13401 17 10 17Z" fill="#09090b"/></g><rect x="377.53846153846155" y="692.1538461538461" width="62.92307692307692" height="62.92307692307692" fill="#050609"/><circle cx="393.27000000000004" cy="739.35" r="15.73" fill="#1f0305"/><g transform="translate(409,723.62) scale(1.573) rotate(0)"><path fill-rule="evenodd" clip-rule="evenodd" d="M10 20C15.5228 20 20 15.5228 20 10C20 4.47715 15.5228 0 10 0C4.47715 0 0 4.47715 0 10C0 15.5228 4.47715 20 10 20ZM10 17C13.866 17 17 13.866 17 10C17 6.13401 13.866 3 10 3C6.13401 3 3 6.13401 3 10C3 13.866 6.13401 17 10 17Z" fill="#08080b"/></g><circle cx="471.91999999999996" cy="723.61" r="31.46" fill="#141516"/><rect x="503.38461538461536" y="692.1538461538461" width="62.92307692307692" height="62.92307692307692" fill="#050609"/><circle cx="550.58" cy="707.88" r="15.73" fill="#a97e65"/><circle cx="519.11" cy="739.35" r="15.73" fill="#271c17"/><rect x="566.3076923076923" y="692.1538461538461" width="62.92307692307692" height="62.92307692307692" fill="#050609"/><g transform="translate(566.31,723.62) scale(1.573) rotate(0)"><path fill-rule="evenodd" clip-rule="evenodd" d="M10 20C15.5228 20 20 15.5228 20 10C20 4.47715 15.5228 0 10 0C4.47715 0 0 4.47715 0 10C0 15.5228 4.47715 20 10 20ZM10 17C13.866 17 17 13.866 17 10C17 6.13401 13.866 3 10 3C6.13401 3 3 6.13401 3 10C3 13.866 6.13401 17 10 17Z" fill="#484942"/></g><g transform="translate(597.77,723.62) scale(1.573) rotate(0)"><path fill-rule="evenodd" clip-rule="evenodd" d="M10 20C15.5228 20 20 15.5228 20 10C20 4.47715 15.5228 0 10 0C4.47715 0 0 4.47715 0 10C0 15.5228 4.47715 20 10 20ZM10 17C13.866 17 17 13.866 17 10C17 6.13401 13.866 3 10 3C6.13401 3 3 6.13401 3 10C3 13.866 6.13401 17 10 17Z" fill="#2e211a"/></g><rect x="692.1538461538461" y="692.1538461538461" width="62.92307692307692" height="62.92307692307692" fill="#050609"/><g transform="translate(692.15,723.62) scale(1.573) rotate(0)"><path fill-rule="evenodd" clip-rule="evenodd" d="M10 20C15.5228 20 20 15.5228 20 10C20 4.47715 15.5228 0 10 0C4.47715 0 0 4.47715 0 10C0 15.5228 4.47715 20 10 20ZM10 17C13.866 17 17 13.866 17 10C17 6.13401 13.866 3 10 3C6.13401 3 3 6.13401 3 10C3 13.866 6.13401 17 10 17Z" fill="#270203"/></g><g transform="translate(723.62,723.62) scale(1.573) rotate(0)"><path fill-rule="evenodd" clip-rule="evenodd" d="M10 20C15.5228 20 20 15.5228 20 10C20 4.47715 15.5228 0 10 0C4.47715 0 0 4.47715 0 10C0 15.5228 4.47715 20 10 20ZM10 17C13.866 17 17 13.866 17 10C17 6.13401 13.866 3 10 3C6.13401 3 3 6.13401 3 10C3 13.866 6.13401 17 10 17Z" fill="#d7d7bb"/></g><circle cx="31.46" cy="786.5400000000001" r="31.46" fill="#0e0507"/><circle cx="94.38" cy="786.5400000000001" r="31.46" fill="#bc8c70"/><g transform="translate(125.85,755.08) scale(3.146) rotate(0)"><path fill-rule="evenodd" clip-rule="evenodd" d="M10 20C15.5228 20 20 15.5228 20 10C20 4.47715 15.5228 0 10 0C4.47715 0 0 4.47715 0 10C0 15.5228 4.47715 20 10 20ZM10 17C13.866 17 17 13.866 17 10C17 6.13401 13.866 3 10 3C6.13401 3 3 6.13401 3 10C3 13.866 6.13401 17 10 17Z" fill="#bc8c6f"/></g><rect x="251.69230769230768" y="755.0769230769231" width="62.92307692307692" height="62.92307692307692" fill="#050609"/><circle cx="267.42" cy="802.27" r="15.73" fill="#684731"/><circle cx="298.88" cy="802.27" r="15.73" fill="#7e5e4d"/><g transform="translate(314.62,755.08) scale(3.146) rotate(0)"><path fill-rule="evenodd" clip-rule="evenodd" d="M10 20C15.5228 20 20 15.5228 20 10C20 4.47715 15.5228 0 10 0C4.47715 0 0 4.47715 0 10C0 15.5228 4.47715 20 10 20ZM10 17C13.866 17 17 13.866 17 10C17 6.13401 13.866 3 10 3C6.13401 3 3 6.13401 3 10C3 13.866 6.13401 17 10 17Z" fill="#6e4b34"/></g><rect x="440.46153846153845" y="755.0769230769231" width="62.92307692307692" height="62.92307692307692" fill="#050609"/><circle cx="487.65000000000003" cy="770.8100000000001" r="15.73" fill="#6f5444"/><g transform="translate(440.46,786.54) scale(1.573) rotate(0)"><path fill-rule="evenodd" clip-rule="evenodd" d="M10 20C15.5228 20 20 15.5228 20 10C20 4.47715 15.5228 0 10 0C4.47715 0 0 4.47715 0 10C0 15.5228 4.47715 20 10 20ZM10 17C13.866 17 17 13.866 17 10C17 6.13401 13.866 3 10 3C6.13401 3 3 6.13401 3 10C3 13.866 6.13401 17 10 17Z" fill="#250304"/></g><circle cx="534.84" cy="786.5400000000001" r="31.46" fill="#868777"/><rect x="566.3076923076923" y="755.0769230769231" width="62.92307692307692" height="62.92307692307692" fill="#050609"/><g transform="translate(566.31,755.08) scale(1.573) rotate(0)"><path fill-rule="evenodd" clip-rule="evenodd" d="M10 20C15.5228 20 20 15.5228 20 10C20 4.47715 15.5228 0 10 0C4.47715 0 0 4.47715 0 10C0 15.5228 4.47715 20 10 20ZM10 17C13.866 17 17 13.866 17 10C17 6.13401 13.866 3 10 3C6.13401 3 3 6.13401 3 10C3 13.866 6.13401 17 10 17Z" fill="#a17860"/></g><rect x="629.2307692307692" y="755.0769230769231" width="62.92307692307692" height="62.92307692307692" fill="#050609"/><circle cx="676.4200000000001" cy="770.8100000000001" r="15.73" fill="#2d2019"/><g transform="translate(629.23,786.54) scale(1.573) rotate(0)"><path fill-rule="evenodd" clip-rule="evenodd" d="M10 20C15.5228 20 20 15.5228 20 10C20 4.47715 15.5228 0 10 0C4.47715 0 0 4.47715 0 10C0 15.5228 4.47715 20 10 20ZM10 17C13.866 17 17 13.866 17 10C17 6.13401 13.866 3 10 3C6.13401 3 3 6.13401 3 10C3 13.866 6.13401 17 10 17Z" fill="#1c1716"/></g><g transform="translate(660.69,786.54) scale(1.573) rotate(0)"><path fill-rule="evenodd" clip-rule="evenodd" d="M10 20C15.5228 20 20 15.5228 20 10C20 4.47715 15.5228 0 10 0C4.47715 0 0 4.47715 0 10C0 15.5228 4.47715 20 10 20ZM10 17C13.866 17 17 13.866 17 10C17 6.13401 13.866 3 10 3C6.13401 3 3 6.13401 3 10C3 13.866 6.13401 17 10 17Z" fill="#2a2b28"/></g><rect x="755.0769230769231" y="755.0769230769231" width="62.92307692307692" height="62.92307692307692" fill="#050609"/><g transform="translate(755.08,755.08) scale(1.573) rotate(0)"><path fill-rule="evenodd" clip-rule="evenodd" d="M10 20C15.5228 20 20 15.5228 20 10C20 4.47715 15.5228 0 10 0C4.47715 0 0 4.47715 0 10C0 15.5228 4.47715 20 10 20ZM10 17C13.866 17 17 13.866 17 10C17 6.13401 13.866 3 10 3C6.13401 3 3 6.13401 3 10C3 13.866 6.13401 17 10 17Z" fill="#2c0203"/></g><circle cx="770.8100000000001" cy="802.27" r="15.73" fill="#7c7c6e"/><g transform="translate(786.54,786.54) scale(1.573) rotate(0)"><path fill-rule="evenodd" clip-rule="evenodd" d="M10 20C15.5228 20 20 15.5228 20 10C20 4.47715 15.5228 0 10 0C4.47715 0 0 4.47715 0 10C0 15.5228 4.47715 20 10 20ZM10 17C13.866 17 17 13.866 17 10C17 6.13401 13.866 3 10 3C6.13401 3 3 6.13401 3 10C3 13.866 6.13401 17 10 17Z" fill="#654530"/></g></g></svg>