<?xml version="1.0" standalone="no"?><svg xmlns:xlink="http://www.w3.org/1999/xlink" xmlns="http://www.w3.org/2000/svg" viewBox="0 0 1000 1857.1198296353643" preserveAspectRatio="xMaxYMax slice"><g transform="scale(2.270317640141032)"><rect x="0" y="0" width="503.38461538461536" height="818" fill="#050609"/><rect x="125.84615384615384" y="62.92307692307692" width="62.92307692307692" height="62.92307692307692" fill="#050609"/><g transform="translate(125.85,62.92) scale(1.573) rotate(0)"><path fill-rule="evenodd" clip-rule="evenodd" d="M10 20C15.5228 20 20 15.5228 20 10C20 4.47715 15.5228 0 10 0C4.47715 0 0 4.47715 0 10C0 15.5228 4.47715 20 10 20ZM10 17C13.866 17 17 13.866 17 10C17 6.13401 13.866 3 10 3C6.13401 3 3 6.13401 3 10C3 13.866 6.13401 17 10 17Z" fill="#290203"/></g><rect x="188.76923076923077" y="62.92307692307692" width="62.92307692307692" height="62.92307692307692" fill="#050609"/><circle cx="235.95999999999998" cy="78.65" r="15.73" fill="#2e2f2c"/><rect x="0" y="125.84615384615384" width="62.92307692307692" height="62.92307692307692" fill="#050609"/><circle cx="15.73" cy="173.04" r="15.73" fill="#060609"/><rect x="62.92307692307692" y="125.84615384615384" width="62.92307692307692" height="62.92307692307692" fill="#050609"/><circle cx="78.65" cy="141.57999999999998" r="15.73" fill="#171313"/><rect x="251.69230769230768" y="188.76923076923077" width="62.92307692307692" height="62.92307692307692" fill="#050609"/><rect x="377.53846153846155" y="188.76923076923077" width="62.92307692307692" height="62.92307692307692" fill="#050609"/><circle cx="424.73" cy="235.95999999999998" r="15.73" fill="#34251c"/><rect x="440.46153846153845" y="188.76923076923077" width="62.92307692307692" height="62.92307692307692" fill="#050609"/><g transform="translate(440.46,188.77) scale(1.573) rotate(0)"><path fill-rule="evenodd" clip-rule="evenodd" d="M10 20C15.5228 20 20 15.5228 20 10C20 4.47715 15.5228 0 10 0C4.47715 0 0 4.47715 0 10C0 15.5228 4.47715 20 10 20ZM10 17C13.866 17 17 13.866 17 10C17 6.13401 13.866 3 10 3C6.13401 3 3 6.13401 3 10C3 13.866 6.13401 17 10 17Z" fill="#a6a792"/></g><g transform="translate(471.92,220.23) scale(1.573) rotate(0)"><path fill-rule="evenodd" clip-rule="evenodd" d="M10 20C15.5228 20 20 15.5228 20 10C20 4.47715 15.5228 0 10 0C4.47715 0 0 4.47715 0 10C0 15.5228 4.47715 20 10 20ZM10 17C13.866 17 17 13.866 17 10C17 6.13401 13.866 3 10 3C6.13401 3 3 6.13401 3 10C3 13.866 6.13401 17 10 17Z" fill="#1a0406"/></g><rect x="0" y="251.69230769230768" width="62.92307692307692" height="62.92307692307692" fill="#050609"/><rect x="62.92307692307692" y="251.69230769230768" width="62.92307692307692" height="62.92307692307692" fill="#050609"/><circle cx="78.65" cy="267.42" r="15.73" fill="#422e22"/><circle cx="110.11" cy="267.42" r="15.73" fill="#2e0202"/><rect x="125.84615384615384" y="251.69230769230768" width="62.92307692307692" height="62.92307692307692" fill="#050609"/><g transform="translate(125.85,251.69) scale(1.573) rotate(0)"><path fill-rule="evenodd" clip-rule="evenodd" d="M10 20C15.5228 20 20 15.5228 20 10C20 4.47715 15.5228 0 10 0C4.47715 0 0 4.47715 0 10C0 15.5228 4.47715 20 10 20ZM10 17C13.866 17 17 13.866 17 10C17 6.13401 13.866 3 10 3C6.13401 3 3 6.13401 3 10C3 13.866 6.13401 17 10 17Z" fill="#320102"/></g><circle cx="141.57999999999998" cy="298.88" r="15.73" fill="#e4e4c6"/><rect x="440.46153846153845" y="251.69230769230768" width="62.92307692307692" height="62.92307692307692" fill="#050609"/><g transform="translate(440.46,283.15) scale(1.573) rotate(0)"><path fill-rule="evenodd" clip-rule="evenodd" d="M10 20C15.5228 20 20 15.5228 20 10C20 4.47715 15.5228 0 10 0C4.47715 0 0 4.47715 0 10C0 15.5228 4.47715 20 10 20ZM10 17C13.866 17 17 13.866 17 10C17 6.13401 13.866 3 10 3C6.13401 3 3 6.13401 3 10C3 13.866 6.13401 17 10 17Z" fill="#270203"/></g><rect x="251.69230769230768" y="314.6153846153846" width="62.92307692307692" height="62.92307692307692" fill="#050609"/><circle cx="298.88" cy="330.35" r="15.73" fill="#704d35"/><g transform="translate(283.15,346.08) scale(1.573) rotate(0)"><path fill-rule="evenodd" clip-rule="evenodd" d="M10 20C15.5228 20 20 15.5228 20 10C20 4.47715 15.5228 0 10 0C4.47715 0 0 4.47715 0 10C0 15.5228 4.47715 20 10 20ZM10 17C13.866 17 17 13.866 17 10C17 6.13401 13.866 3 10 3C6.13401 3 3 6.13401 3 10C3 13.866 6.13401 17 10 17Z" fill="#c89576"/></g><rect x="125.84615384615384" y="377.53846153846155" width="62.92307692307692" height="62.92307692307692" fill="#050609"/><circle cx="173.04" cy="393.27000000000004" r="15.73" fill="#664630"/><g transform="translate(125.85,409) scale(1.573) rotate(0)"><path fill-rule="evenodd" clip-rule="evenodd" d="M10 20C15.5228 20 20 15.5228 20 10C20 4.47715 15.5228 0 10 0C4.47715 0 0 4.47715 0 10C0 15.5228 4.47715 20 10 20ZM10 17C13.866 17 17 13.866 17 10C17 6.13401 13.866 3 10 3C6.13401 3 3 6.13401 3 10C3 13.866 6.13401 17 10 17Z" fill="#3c0000"/></g><rect x="188.76923076923077" y="377.53846153846155" width="62.92307692307692" height="62.92307692307692" fill="#050609"/><circle cx="235.95999999999998" cy="393.27000000000004" r="15.73" fill="#e4e4c6"/><circle cx="204.5" cy="424.73" r="15.73" fill="#856451"/><rect x="251.69230769230768" y="377.53846153846155" width="62.92307692307692" height="62.92307692307692" fill="#050609"/><g transform="translate(251.69,377.54) scale(1.573) rotate(0)"><path fill-rule="evenodd" clip-rule="evenodd" d="M10 20C15.5228 20 20 15.5228 20 10C20 4.47715 15.5228 0 10 0C4.47715 0 0 4.47715 0 10C0 15.5228 4.47715 20 10 20ZM10 17C13.866 17 17 13.866 17 10C17 6.13401 13.866 3 10 3C6.13401 3 3 6.13401 3 10C3 13.866 6.13401 17 10 17Z" fill="#46362d"/></g><g transform="translate(251.69,409) scale(1.573) rotate(0)"><path fill-rule="evenodd" clip-rule="evenodd" d="M10 20C15.5228 20 20 15.5228 20 10C20 4.47715 15.5228 0 10 0C4.47715 0 0 4.47715 0 10C0 15.5228 4.47715 20 10 20ZM10 17C13.866 17 17 13.866 17 10C17 6.13401 13.866 3 10 3C6.13401 3 3 6.13401 3 10C3 13.866 6.13401 17 10 17Z" fill="#161313"/></g><rect x="377.53846153846155" y="377.53846153846155" width="62.92307692307692" height="62.92307692307692" fill="#050609"/><g transform="translate(377.54,377.54) scale(1.573) rotate(0)"><path fill-rule="evenodd" clip-rule="evenodd" d="M10 20C15.5228 20 20 15.5228 20 10C20 4.47715 15.5228 0 10 0C4.47715 0 0 4.47715 0 10C0 15.5228 4.47715 20 10 20ZM10 17C13.866 17 17 13.866 17 10C17 6.13401 13.866 3 10 3C6.13401 3 3 6.13401 3 10C3 13.866 6.13401 17 10 17Z" fill="#6f5444"/></g><circle cx="424.73" cy="393.27000000000004" r="15.73" fill="#3c2a1f"/><g transform="translate(409,409) scale(1.573) rotate(0)"><path fill-rule="evenodd" clip-rule="evenodd" d="M10 20C15.5228 20 20 15.5228 20 10C20 4.47715 15.5228 0 10 0C4.47715 0 0 4.47715 0 10C0 15.5228 4.47715 20 10 20ZM10 17C13.866 17 17 13.866 17 10C17 6.13401 13.866 3 10 3C6.13401 3 3 6.13401 3 10C3 13.866 6.13401 17 10 17Z" fill="#b0b09a"/></g><rect x="62.92307692307692" y="440.46153846153845" width="62.92307692307692" height="62.92307692307692" fill="#050609"/><circle cx="110.11" cy="487.65000000000003" r="15.73" fill="#2b0203"/><rect x="188.76923076923077" y="440.46153846153845" width="62.92307692307692" height="62.92307692307692" fill="#050609"/><g transform="translate(188.77,440.46) scale(1.573) rotate(0)"><path fill-rule="evenodd" clip-rule="evenodd" d="M10 20C15.5228 20 20 15.5228 20 10C20 4.47715 15.5228 0 10 0C4.47715 0 0 4.47715 0 10C0 15.5228 4.47715 20 10 20ZM10 17C13.866 17 17 13.866 17 10C17 6.13401 13.866 3 10 3C6.13401 3 3 6.13401 3 10C3 13.866 6.13401 17 10 17Z" fill="#1c1512"/></g><g transform="translate(220.23,440.46) scale(1.573) rotate(0)"><path fill-rule="evenodd" clip-rule="evenodd" d="M10 20C15.5228 20 20 15.5228 20 10C20 4.47715 15.5228 0 10 0C4.47715 0 0 4.47715 0 10C0 15.5228 4.47715 20 10 20ZM10 17C13.866 17 17 13.866 17 10C17 6.13401 13.866 3 10 3C6.13401 3 3 6.13401 3 10C3 13.866 6.13401 17 10 17Z" fill="#1c1512"/></g><circle cx="204.5" cy="487.65000000000003" r="15.73" fill="#350101"/><circle cx="235.95999999999998" cy="487.65000000000003" r="15.73" fill="#745747"/><rect x="251.69230769230768" y="440.46153846153845" width="62.92307692307692" height="62.92307692307692" fill="#050609"/><circle cx="267.42" cy="456.19" r="15.73" fill="#eeeece"/><circle cx="267.42" cy="487.65000000000003" r="15.73" fill="#06070a"/><g transform="translate(283.15,471.92) scale(1.573) rotate(0)"><path fill-rule="evenodd" clip-rule="evenodd" d="M10 20C15.5228 20 20 15.5228 20 10C20 4.47715 15.5228 0 10 0C4.47715 0 0 4.47715 0 10C0 15.5228 4.47715 20 10 20ZM10 17C13.866 17 17 13.866 17 10C17 6.13401 13.866 3 10 3C6.13401 3 3 6.13401 3 10C3 13.866 6.13401 17 10 17Z" fill="#2f0102"/></g><rect x="314.6153846153846" y="440.46153846153845" width="62.92307692307692" height="62.92307692307692" fill="#050609"/><circle cx="330.35" cy="456.19" r="15.73" fill="#1e0305"/><circle cx="361.81" cy="487.65000000000003" r="15.73" fill="#7a7b6c"/><rect x="377.53846153846155" y="440.46153846153845" width="62.92307692307692" height="62.92307692307692" fill="#050609"/><circle cx="393.27000000000004" cy="456.19" r="15.73" fill="#140407"/><g transform="translate(409,440.46) scale(1.573) rotate(0)"><path fill-rule="evenodd" clip-rule="evenodd" d="M10 20C15.5228 20 20 15.5228 20 10C20 4.47715 15.5228 0 10 0C4.47715 0 0 4.47715 0 10C0 15.5228 4.47715 20 10 20ZM10 17C13.866 17 17 13.866 17 10C17 6.13401 13.866 3 10 3C6.13401 3 3 6.13401 3 10C3 13.866 6.13401 17 10 17Z" fill="#e3e3c5"/></g><circle cx="393.27000000000004" cy="487.65000000000003" r="15.73" fill="#2e211a"/><g transform="translate(409,471.92) scale(1.573) rotate(0)"><path fill-rule="evenodd" clip-rule="evenodd" d="M10 20C15.5228 20 20 15.5228 20 10C20 4.47715 15.5228 0 10 0C4.47715 0 0 4.47715 0 10C0 15.5228 4.47715 20 10 20ZM10 17C13.866 17 17 13.866 17 10C17 6.13401 13.866 3 10 3C6.13401 3 3 6.13401 3 10C3 13.866 6.13401 17 10 17Z" fill="#acac97"/></g><rect x="440.46153846153845" y="440.46153846153845" width="62.92307692307692" height="62.92307692307692" fill="#050609"/><g transform="translate(471.92,440.46) scale(1.573) rotate(0)"><path fill-rule="evenodd" clip-rule="evenodd" d="M10 20C15.5228 20 20 15.5228 20 10C20 4.47715 15.5228 0 10 0C4.47715 0 0 4.47715 0 10C0 15.5228 4.47715 20 10 20ZM10 17C13.866 17 17 13.866 17 10C17 6.13401 13.866 3 10 3C6.13401 3 3 6.13401 3 10C3 13.866 6.13401 17 10 17Z" fill="#2c0203"/></g><circle cx="456.19" cy="487.65000000000003" r="15.73" fill="#390000"/><rect x="62.92307692307692" y="503.38461538461536" width="62.92307692307692" height="62.92307692307692" fill="#050609"/><circle cx="110.11" cy="519.11" r="15.73" fill="#310102"/><rect x="125.84615384615384" y="503.38461538461536" width="62.92307692307692" height="62.92307692307692" fill="#050609"/><circle cx="141.57999999999998" cy="519.11" r="15.73" fill="#200305"/><g transform="translate(157.31,503.38) scale(1.573) rotate(0)"><path fill-rule="evenodd" clip-rule="evenodd" d="M10 20C15.5228 20 20 15.5228 20 10C20 4.47715 15.5228 0 10 0C4.47715 0 0 4.47715 0 10C0 15.5228 4.47715 20 10 20ZM10 17C13.866 17 17 13.866 17 10C17 6.13401 13.866 3 10 3C6.13401 3 3 6.13401 3 10C3 13.866 6.13401 17 10 17Z" fill="#0e0c0e"/></g><g transform="translate(157.31,534.85) scale(1.573) rotate(0)"><path fill-rule="evenodd" clip-rule="evenodd" d="M10 20C15.5228 20 20 15.5228 20 10C20 4.47715 15.5228 0 10 0C4.47715 0 0 4.47715 0 10C0 15.5228 4.47715 20 10 20ZM10 17C13.866 17 17 13.866 17 10C17 6.13401 13.866 3 10 3C6.13401 3 3 6.13401 3 10C3 13.866 6.13401 17 10 17Z" fill="#2e0202"/></g><rect x="251.69230769230768" y="503.38461538461536" width="62.92307692307692" height="62.92307692307692" fill="#050609"/><circle cx="298.88" cy="519.11" r="15.73" fill="#240304"/><circle cx="298.88" cy="550.58" r="15.73" fill="#120507"/><rect x="314.6153846153846" y="503.38461538461536" width="62.92307692307692" height="62.92307692307692" fill="#050609"/><g transform="translate(346.08,503.38) scale(1.573) rotate(0)"><path fill-rule="evenodd" clip-rule="evenodd" d="M10 20C15.5228 20 20 15.5228 20 10C20 4.47715 15.5228 0 10 0C4.47715 0 0 4.47715 0 10C0 15.5228 4.47715 20 10 20ZM10 17C13.866 17 17 13.866 17 10C17 6.13401 13.866 3 10 3C6.13401 3 3 6.13401 3 10C3 13.866 6.13401 17 10 17Z" fill="#3a291f"/></g><g transform="translate(314.62,534.85) scale(1.573) rotate(0)"><path fill-rule="evenodd" clip-rule="evenodd" d="M10 20C15.5228 20 20 15.5228 20 10C20 4.47715 15.5228 0 10 0C4.47715 0 0 4.47715 0 10C0 15.5228 4.47715 20 10 20ZM10 17C13.866 17 17 13.866 17 10C17 6.13401 13.866 3 10 3C6.13401 3 3 6.13401 3 10C3 13.866 6.13401 17 10 17Z" fill="#2f0102"/></g><g transform="translate(346.08,534.85) scale(1.573) rotate(0)"><path fill-rule="evenodd" clip-rule="evenodd" d="M10 20C15.5228 20 20 15.5228 20 10C20 4.47715 15.5228 0 10 0C4.47715 0 0 4.47715 0 10C0 15.5228 4.47715 20 10 20ZM10 17C13.866 17 17 13.866 17 10C17 6.13401 13.866 3 10 3C6.13401 3 3 6.13401 3 10C3 13.866 6.13401 17 10 17Z" fill="#100e0e"/></g><rect x="377.53846153846155" y="503.38461538461536" width="62.92307692307692" height="62.92307692307692" fill="#050609"/><circle cx="393.27000000000004" cy="519.11" r="15.73" fill="#515149"/><g transform="translate(409,503.38) scale(1.573) rotate(0)"><path fill-rule="evenodd" clip-rule="evenodd" d="M10 20C15.5228 20 20 15.5228 20 10C20 4.47715 15.5228 0 10 0C4.47715 0 0 4.47715 0 10C0 15.5228 4.47715 20 10 20ZM10 17C13.866 17 17 13.866 17 10C17 6.13401 13.866 3 10 3C6.13401 3 3 6.13401 3 10C3 13.866 6.13401 17 10 17Z" fill="#d39d7c"/></g><circle cx="424.73" cy="550.58" r="15.73" fill="#38281e"/><rect x="0" y="566.3076923076923" width="62.92307692307692" height="62.92307692307692" fill="#050609"/><circle cx="15.73" cy="582.04" r="15.73" fill="#220304"/><circle cx="47.19" cy="582.04" r="15.73" fill="#3c3d38"/><g transform="translate(0,597.77) scale(1.573) rotate(0)"><path fill-rule="evenodd" clip-rule="evenodd" d="M10 20C15.5228 20 20 15.5228 20 10C20 4.47715 15.5228 0 10 0C4.47715 0 0 4.47715 0 10C0 15.5228 4.47715 20 10 20ZM10 17C13.866 17 17 13.866 17 10C17 6.13401 13.866 3 10 3C6.13401 3 3 6.13401 3 10C3 13.866 6.13401 17 10 17Z" fill="#d8d8bc"/></g><rect x="62.92307692307692" y="566.3076923076923" width="62.92307692307692" height="62.92307692307692" fill="#050609"/><g transform="translate(62.92,566.31) scale(1.573) rotate(0)"><path fill-rule="evenodd" clip-rule="evenodd" d="M10 20C15.5228 20 20 15.5228 20 10C20 4.47715 15.5228 0 10 0C4.47715 0 0 4.47715 0 10C0 15.5228 4.47715 20 10 20ZM10 17C13.866 17 17 13.866 17 10C17 6.13401 13.866 3 10 3C6.13401 3 3 6.13401 3 10C3 13.866 6.13401 17 10 17Z" fill="#818172"/></g><g transform="translate(62.92,597.77) scale(1.573) rotate(0)"><path fill-rule="evenodd" clip-rule="evenodd" d="M10 20C15.5228 20 20 15.5228 20 10C20 4.47715 15.5228 0 10 0C4.47715 0 0 4.47715 0 10C0 15.5228 4.47715 20 10 20ZM10 17C13.866 17 17 13.866 17 10C17 6.13401 13.866 3 10 3C6.13401 3 3 6.13401 3 10C3 13.866 6.13401 17 10 17Z" fill="#919280"/></g><rect x="188.76923076923077" y="566.3076923076923" width="62.92307692307692" height="62.92307692307692" fill="#050609"/><circle cx="235.95999999999998" cy="582.04" r="15.73" fill="#616257"/><g transform="translate(220.23,597.77) scale(1.573) rotate(0)"><path fill-rule="evenodd" clip-rule="evenodd" d="M10 20C15.5228 20 20 15.5228 20 10C20 4.47715 15.5228 0 10 0C4.47715 0 0 4.47715 0 10C0 15.5228 4.47715 20 10 20ZM10 17C13.866 17 17 13.866 17 10C17 6.13401 13.866 3 10 3C6.13401 3 3 6.13401 3 10C3 13.866 6.13401 17 10 17Z" fill="#2e0102"/></g><rect x="251.69230769230768" y="566.3076923076923" width="62.92307692307692" height="62.92307692307692" fill="#050609"/><circle cx="267.42" cy="582.04" r="15.73" fill="#6a6b5f"/><circle cx="298.88" cy="582.04" r="15.73" fill="#0c0b0d"/><circle cx="267.42" cy="613.5" r="15.73" fill="#230304"/><g transform="translate(283.15,597.77) scale(1.573) rotate(0)"><path fill-rule="evenodd" clip-rule="evenodd" d="M10 20C15.5228 20 20 15.5228 20 10C20 4.47715 15.5228 0 10 0C4.47715 0 0 4.47715 0 10C0 15.5228 4.47715 20 10 20ZM10 17C13.866 17 17 13.866 17 10C17 6.13401 13.866 3 10 3C6.13401 3 3 6.13401 3 10C3 13.866 6.13401 17 10 17Z" fill="#0a0508"/></g><rect x="314.6153846153846" y="566.3076923076923" width="62.92307692307692" height="62.92307692307692" fill="#050609"/><circle cx="330.35" cy="582.04" r="15.73" fill="#1e0305"/><g transform="translate(346.08,566.31) scale(1.573) rotate(0)"><path fill-rule="evenodd" clip-rule="evenodd" d="M10 20C15.5228 20 20 15.5228 20 10C20 4.47715 15.5228 0 10 0C4.47715 0 0 4.47715 0 10C0 15.5228 4.47715 20 10 20ZM10 17C13.866 17 17 13.866 17 10C17 6.13401 13.866 3 10 3C6.13401 3 3 6.13401 3 10C3 13.866 6.13401 17 10 17Z" fill="#300102"/></g><circle cx="330.35" cy="613.5" r="15.73" fill="#180406"/><rect x="440.46153846153845" y="566.3076923076923" width="62.92307692307692" height="62.92307692307692" fill="#050609"/><circle cx="456.19" cy="582.04" r="15.73" fill="#422e22"/><g transform="translate(471.92,566.31) scale(1.573) rotate(0)"><path fill-rule="evenodd" clip-rule="evenodd" d="M10 20C15.5228 20 20 15.5228 20 10C20 4.47715 15.5228 0 10 0C4.47715 0 0 4.47715 0 10C0 15.5228 4.47715 20 10 20ZM10 17C13.866 17 17 13.866 17 10C17 6.13401 13.866 3 10 3C6.13401 3 3 6.13401 3 10C3 13.866 6.13401 17 10 17Z" fill="#634b3e"/></g><circle cx="456.19" cy="613.5" r="15.73" fill="#2d0202"/><circle cx="487.65000000000003" cy="613.5" r="15.73" fill="#260204"/><rect x="0" y="629.2307692307692" width="62.92307692307692" height="62.92307692307692" fill="#050609"/><g transform="translate(0,629.23) scale(1.573) rotate(0)"><path fill-rule="evenodd" clip-rule="evenodd" d="M10 20C15.5228 20 20 15.5228 20 10C20 4.47715 15.5228 0 10 0C4.47715 0 0 4.47715 0 10C0 15.5228 4.47715 20 10 20ZM10 17C13.866 17 17 13.866 17 10C17 6.13401 13.866 3 10 3C6.13401 3 3 6.13401 3 10C3 13.866 6.13401 17 10 17Z" fill="#5a3e2c"/></g><g transform="translate(31.46,629.23) scale(1.573) rotate(0)"><path fill-rule="evenodd" clip-rule="evenodd" d="M10 20C15.5228 20 20 15.5228 20 10C20 4.47715 15.5228 0 10 0C4.47715 0 0 4.47715 0 10C0 15.5228 4.47715 20 10 20ZM10 17C13.866 17 17 13.866 17 10C17 6.13401 13.866 3 10 3C6.13401 3 3 6.13401 3 10C3 13.866 6.13401 17 10 17Z" fill="#240304"/></g><circle cx="15.73" cy="676.4200000000001" r="15.73" fill="#795238"/><circle cx="47.19" cy="676.4200000000001" r="15.73" fill="#2e0202"/><rect x="62.92307692307692" y="629.2307692307692" width="62.92307692307692" height="62.92307692307692" fill="#050609"/><g transform="translate(62.92,629.23) scale(1.573) rotate(0)"><path fill-rule="evenodd" clip-rule="evenodd" d="M10 20C15.5228 20 20 15.5228 20 10C20 4.47715 15.5228 0 10 0C4.47715 0 0 4.47715 0 10C0 15.5228 4.47715 20 10 20ZM10 17C13.866 17 17 13.866 17 10C17 6.13401 13.866 3 10 3C6.13401 3 3 6.13401 3 10C3 13.866 6.13401 17 10 17Z" fill="#d49e7d"/></g><g transform="translate(94.38,629.23) scale(1.573) rotate(0)"><path fill-rule="evenodd" clip-rule="evenodd" d="M10 20C15.5228 20 20 15.5228 20 10C20 4.47715 15.5228 0 10 0C4.47715 0 0 4.47715 0 10C0 15.5228 4.47715 20 10 20ZM10 17C13.866 17 17 13.866 17 10C17 6.13401 13.866 3 10 3C6.13401 3 3 6.13401 3 10C3 13.866 6.13401 17 10 17Z" fill="#2c1f19"/></g><circle cx="78.65" cy="676.4200000000001" r="15.73" fill="#795b4a"/><g transform="translate(94.38,660.69) scale(1.573) rotate(0)"><path fill-rule="evenodd" clip-rule="evenodd" d="M10 20C15.5228 20 20 15.5228 20 10C20 4.47715 15.5228 0 10 0C4.47715 0 0 4.47715 0 10C0 15.5228 4.47715 20 10 20ZM10 17C13.866 17 17 13.866 17 10C17 6.13401 13.866 3 10 3C6.13401 3 3 6.13401 3 10C3 13.866 6.13401 17 10 17Z" fill="#5d402d"/></g><rect x="125.84615384615384" y="629.2307692307692" width="62.92307692307692" height="62.92307692307692" fill="#050609"/><circle cx="141.57999999999998" cy="644.96" r="15.73" fill="#2b0203"/><g transform="translate(157.31,629.23) scale(1.573) rotate(0)"><path fill-rule="evenodd" clip-rule="evenodd" d="M10 20C15.5228 20 20 15.5228 20 10C20 4.47715 15.5228 0 10 0C4.47715 0 0 4.47715 0 10C0 15.5228 4.47715 20 10 20ZM10 17C13.866 17 17 13.866 17 10C17 6.13401 13.866 3 10 3C6.13401 3 3 6.13401 3 10C3 13.866 6.13401 17 10 17Z" fill="#503d33"/></g><g transform="translate(125.85,660.69) scale(1.573) rotate(0)"><path fill-rule="evenodd" clip-rule="evenodd" d="M10 20C15.5228 20 20 15.5228 20 10C20 4.47715 15.5228 0 10 0C4.47715 0 0 4.47715 0 10C0 15.5228 4.47715 20 10 20ZM10 17C13.866 17 17 13.866 17 10C17 6.13401 13.866 3 10 3C6.13401 3 3 6.13401 3 10C3 13.866 6.13401 17 10 17Z" fill="#262725"/></g><circle cx="173.04" cy="676.4200000000001" r="15.73" fill="#181819"/><rect x="251.69230769230768" y="629.2307692307692" width="62.92307692307692" height="62.92307692307692" fill="#050609"/><circle cx="267.42" cy="644.96" r="15.73" fill="#b1b19a"/><g transform="translate(283.15,629.23) scale(1.573) rotate(0)"><path fill-rule="evenodd" clip-rule="evenodd" d="M10 20C15.5228 20 20 15.5228 20 10C20 4.47715 15.5228 0 10 0C4.47715 0 0 4.47715 0 10C0 15.5228 4.47715 20 10 20ZM10 17C13.866 17 17 13.866 17 10C17 6.13401 13.866 3 10 3C6.13401 3 3 6.13401 3 10C3 13.866 6.13401 17 10 17Z" fill="#1d1613"/></g><circle cx="267.42" cy="676.4200000000001" r="15.73" fill="#64655a"/><g transform="translate(283.15,660.69) scale(1.573) rotate(0)"><path fill-rule="evenodd" clip-rule="evenodd" d="M10 20C15.5228 20 20 15.5228 20 10C20 4.47715 15.5228 0 10 0C4.47715 0 0 4.47715 0 10C0 15.5228 4.47715 20 10 20ZM10 17C13.866 17 17 13.866 17 10C17 6.13401 13.866 3 10 3C6.13401 3 3 6.13401 3 10C3 13.866 6.13401 17 10 17Z" fill="#1c0305"/></g><rect x="314.6153846153846" y="629.2307692307692" width="62.92307692307692" height="62.92307692307692" fill="#050609"/><circle cx="330.35" cy="644.96" r="15.73" fill="#d6d6ba"/><g transform="translate(346.08,629.23) scale(1.573) rotate(0)"><path fill-rule="evenodd" clip-rule="evenodd" d="M10 20C15.5228 20 20 15.5228 20 10C20 4.47715 15.5228 0 10 0C4.47715 0 0 4.47715 0 10C0 15.5228 4.47715 20 10 20ZM10 17C13.866 17 17 13.866 17 10C17 6.13401 13.866 3 10 3C6.13401 3 3 6.13401 3 10C3 13.866 6.13401 17 10 17Z" fill="#1f0305"/></g><g transform="translate(314.62,660.69) scale(1.573) rotate(0)"><path fill-rule="evenodd" clip-rule="evenodd" d="M10 20C15.5228 20 20 15.5228 20 10C20 4.47715 15.5228 0 10 0C4.47715 0 0 4.47715 0 10C0 15.5228 4.47715 20 10 20ZM10 17C13.866 17 17 13.866 17 10C17 6.13401 13.866 3 10 3C6.13401 3 3 6.13401 3 10C3 13.866 6.13401 17 10 17Z" fill="#211915"/></g><g transform="translate(346.08,660.69) scale(1.573) rotate(0)"><path fill-rule="evenodd" clip-rule="evenodd" d="M10 20C15.5228 20 20 15.5228 20 10C20 4.47715 15.5228 0 10 0C4.47715 0 0 4.47715 0 10C0 15.5228 4.47715 20 10 20ZM10 17C13.866 17 17 13.866 17 10C17 6.13401 13.866 3 10 3C6.13401 3 3 6.13401 3 10C3 13.866 6.13401 17 10 17Z" fill="#63442f"/></g><rect x="377.53846153846155" y="629.2307692307692" width="62.92307692307692" height="62.92307692307692" fill="#050609"/><g transform="translate(377.54,629.23) scale(1.573) rotate(0)"><path fill-rule="evenodd" clip-rule="evenodd" d="M10 20C15.5228 20 20 15.5228 20 10C20 4.47715 15.5228 0 10 0C4.47715 0 0 4.47715 0 10C0 15.5228 4.47715 20 10 20ZM10 17C13.866 17 17 13.866 17 10C17 6.13401 13.866 3 10 3C6.13401 3 3 6.13401 3 10C3 13.866 6.13401 17 10 17Z" fill="#574237"/></g><circle cx="393.27000000000004" cy="676.4200000000001" r="15.73" fill="#120e0e"/><circle cx="424.73" cy="676.4200000000001" r="15.73" fill="#14100f"/><rect x="440.46153846153845" y="629.2307692307692" width="62.92307692307692" height="62.92307692307692" fill="#050609"/><circle cx="456.19" cy="644.96" r="15.73" fill="#503728"/><circle cx="487.65000000000003" cy="644.96" r="15.73" fill="#949482"/><g transform="translate(440.46,660.69) scale(1.573) rotate(0)"><path fill-rule="evenodd" clip-rule="evenodd" d="M10 20C15.5228 20 20 15.5228 20 10C20 4.47715 15.5228 0 10 0C4.47715 0 0 4.47715 0 10C0 15.5228 4.47715 20 10 20ZM10 17C13.866 17 17 13.866 17 10C17 6.13401 13.866 3 10 3C6.13401 3 3 6.13401 3 10C3 13.866 6.13401 17 10 17Z" fill="#3f403a"/></g><rect x="0" y="692.1538461538461" width="62.92307692307692" height="62.92307692307692" fill="#050609"/><circle cx="15.73" cy="707.88" r="15.73" fill="#342823"/><circle cx="47.19" cy="707.88" r="15.73" fill="#8b8b7a"/><circle cx="15.73" cy="739.35" r="15.73" fill="#1b1412"/><circle cx="47.19" cy="739.35" r="15.73" fill="#757568"/><rect x="62.92307692307692" y="692.1538461538461" width="62.92307692307692" height="62.92307692307692" fill="#050609"/><g transform="translate(62.92,692.15) scale(1.573) rotate(0)"><path fill-rule="evenodd" clip-rule="evenodd" d="M10 20C15.5228 20 20 15.5228 20 10C20 4.47715 15.5228 0 10 0C4.47715 0 0 4.47715 0 10C0 15.5228 4.47715 20 10 20ZM10 17C13.866 17 17 13.866 17 10C17 6.13401 13.866 3 10 3C6.13401 3 3 6.13401 3 10C3 13.866 6.13401 17 10 17Z" fill="#a47a62"/></g><circle cx="110.11" cy="707.88" r="15.73" fill="#8b8c7b"/><g transform="translate(62.92,723.62) scale(1.573) rotate(0)"><path fill-rule="evenodd" clip-rule="evenodd" d="M10 20C15.5228 20 20 15.5228 20 10C20 4.47715 15.5228 0 10 0C4.47715 0 0 4.47715 0 10C0 15.5228 4.47715 20 10 20ZM10 17C13.866 17 17 13.866 17 10C17 6.13401 13.866 3 10 3C6.13401 3 3 6.13401 3 10C3 13.866 6.13401 17 10 17Z" fill="#1c0305"/></g><circle cx="110.11" cy="739.35" r="15.73" fill="#251b16"/><rect x="125.84615384615384" y="692.1538461538461" width="62.92307692307692" height="62.92307692307692" fill="#050609"/><g transform="translate(125.85,692.15) scale(1.573) rotate(0)"><path fill-rule="evenodd" clip-rule="evenodd" d="M10 20C15.5228 20 20 15.5228 20 10C20 4.47715 15.5228 0 10 0C4.47715 0 0 4.47715 0 10C0 15.5228 4.47715 20 10 20ZM10 17C13.866 17 17 13.866 17 10C17 6.13401 13.866 3 10 3C6.13401 3 3 6.13401 3 10C3 13.866 6.13401 17 10 17Z" fill="#1d1613"/></g><circle cx="173.04" cy="707.88" r="15.73" fill="#b98a6e"/><circle cx="141.57999999999998" cy="739.35" r="15.73" fill="#6f4c34"/><g transform="translate(157.31,723.62) scale(1.573) rotate(0)"><path fill-rule="evenodd" clip-rule="evenodd" d="M10 20C15.5228 20 20 15.5228 20 10C20 4.47715 15.5228 0 10 0C4.47715 0 0 4.47715 0 10C0 15.5228 4.47715 20 10 20ZM10 17C13.866 17 17 13.866 17 10C17 6.13401 13.866 3 10 3C6.13401 3 3 6.13401 3 10C3 13.866 6.13401 17 10 17Z" fill="#3d2b20"/></g><rect x="188.76923076923077" y="692.1538461538461" width="62.92307692307692" height="62.92307692307692" fill="#050609"/><circle cx="204.5" cy="707.88" r="15.73" fill="#1b1b1b"/><circle cx="235.95999999999998" cy="707.88" r="15.73" fill="#876552"/><g transform="translate(188.77,723.62) scale(1.573) rotate(0)"><path fill-rule="evenodd" clip-rule="evenodd" d="M10 20C15.5228 20 20 15.5228 20 10C20 4.47715 15.5228 0 10 0C4.47715 0 0 4.47715 0 10C0 15.5228 4.47715 20 10 20ZM10 17C13.866 17 17 13.866 17 10C17 6.13401 13.866 3 10 3C6.13401 3 3 6.13401 3 10C3 13.866 6.13401 17 10 17Z" fill="#392c26"/></g><g transform="translate(220.23,723.62) scale(1.573) rotate(0)"><path fill-rule="evenodd" clip-rule="evenodd" d="M10 20C15.5228 20 20 15.5228 20 10C20 4.47715 15.5228 0 10 0C4.47715 0 0 4.47715 0 10C0 15.5228 4.47715 20 10 20ZM10 17C13.866 17 17 13.866 17 10C17 6.13401 13.866 3 10 3C6.13401 3 3 6.13401 3 10C3 13.866 6.13401 17 10 17Z" fill="#b3856a"/></g><rect x="251.69230769230768" y="692.1538461538461" width="62.92307692307692" height="62.92307692307692" fill="#050609"/><circle cx="267.42" cy="707.88" r="15.73" fill="#09090b"/><circle cx="298.88" cy="707.88" r="15.73" fill="#9b745d"/><g transform="translate(251.69,723.62) scale(1.573) rotate(0)"><path fill-rule="evenodd" clip-rule="evenodd" d="M10 20C15.5228 20 20 15.5228 20 10C20 4.47715 15.5228 0 10 0C4.47715 0 0 4.47715 0 10C0 15.5228 4.47715 20 10 20ZM10 17C13.866 17 17 13.866 17 10C17 6.13401 13.866 3 10 3C6.13401 3 3 6.13401 3 10C3 13.866 6.13401 17 10 17Z" fill="#616257"/></g><g transform="translate(283.15,723.62) scale(1.573) rotate(0)"><path fill-rule="evenodd" clip-rule="evenodd" d="M10 20C15.5228 20 20 15.5228 20 10C20 4.47715 15.5228 0 10 0C4.47715 0 0 4.47715 0 10C0 15.5228 4.47715 20 10 20ZM10 17C13.866 17 17 13.866 17 10C17 6.13401 13.866 3 10 3C6.13401 3 3 6.13401 3 10C3 13.866 6.13401 17 10 17Z" fill="#1e0305"/></g><rect x="314.6153846153846" y="692.1538461538461" width="62.92307692307692" height="62.92307692307692" fill="#050609"/><circle cx="330.35" cy="707.88" r="15.73" fill="#240304"/><g transform="translate(346.08,692.15) scale(1.573) rotate(0)"><path fill-rule="evenodd" clip-rule="evenodd" d="M10 20C15.5228 20 20 15.5228 20 10C20 4.47715 15.5228 0 10 0C4.47715 0 0 4.47715 0 10C0 15.5228 4.47715 20 10 20ZM10 17C13.866 17 17 13.866 17 10C17 6.13401 13.866 3 10 3C6.13401 3 3 6.13401 3 10C3 13.866 6.13401 17 10 17Z" fill="#070609"/></g><g transform="translate(314.62,723.62) scale(1.573) rotate(0)"><path fill-rule="evenodd" clip-rule="evenodd" d="M10 20C15.5228 20 20 15.5228 20 10C20 4.47715 15.5228 0 10 0C4.47715 0 0 4.47715 0 10C0 15.5228 4.47715 20 10 20ZM10 17C13.866 17 17 13.866 17 10C17 6.13401 13.866 3 10 3C6.13401 3 3 6.13401 3 10C3 13.866 6.13401 17 10 17Z" fill="#0d0b0c"/></g><g transform="translate(346.08,723.62) scale(1.573) rotate(0)"><path fill-rule="evenodd" clip-rule="evenodd" d="M10 20C15.5228 20 20 15.5228 20 10C20 4.47715 15.5228 0 10 0C4.47715 0 0 4.47715 0 10C0 15.5228 4.47715 20 10 20ZM10 17C13.866 17 17 13.866 17 10C17 6.13401 13.866 3 10 3C6.13401 3 3 6.13401 3 10C3 13.866 6.13401 17 10 17Z" fill="#4f4f47"/></g><rect x="377.53846153846155" y="692.1538461538461" width="62.92307692307692" height="62.92307692307692" fill="#050609"/><g transform="translate(377.54,692.15) scale(1.573) rotate(0)"><path fill-rule="evenodd" clip-rule="evenodd" d="M10 20C15.5228 20 20 15.5228 20 10C20 4.47715 15.5228 0 10 0C4.47715 0 0 4.47715 0 10C0 15.5228 4.47715 20 10 20ZM10 17C13.866 17 17 13.866 17 10C17 6.13401 13.866 3 10 3C6.13401 3 3 6.13401 3 10C3 13.866 6.13401 17 10 17Z" fill="#e7e7c8"/></g><circle cx="424.73" cy="707.88" r="15.73" fill="#abab96"/><circle cx="393.27000000000004" cy="739.35" r="15.73" fill="#060609"/><circle cx="424.73" cy="739.35" r="15.73" fill="#4b4b44"/><rect x="440.46153846153845" y="692.1538461538461" width="62.92307692307692" height="62.92307692307692" fill="#050609"/><circle cx="456.19" cy="707.88" r="15.73" fill="#0f1011"/><circle cx="487.65000000000003" cy="707.88" r="15.73" fill="#100507"/><circle cx="456.19" cy="739.35" r="15.73" fill="#212220"/><circle cx="487.65000000000003" cy="739.35" r="15.73" fill="#312621"/><rect x="0" y="755.0769230769231" width="62.92307692307692" height="62.92307692307692" fill="#050609"/><g transform="translate(0,755.08) scale(1.573) rotate(0)"><path fill-rule="evenodd" clip-rule="evenodd" d="M10 20C15.5228 20 20 15.5228 20 10C20 4.47715 15.5228 0 10 0C4.47715 0 0 4.47715 0 10C0 15.5228 4.47715 20 10 20ZM10 17C13.866 17 17 13.866 17 10C17 6.13401 13.866 3 10 3C6.13401 3 3 6.13401 3 10C3 13.866 6.13401 17 10 17Z" fill="#0b0508"/></g><g transform="translate(31.46,755.08) scale(1.573) rotate(0)"><path fill-rule="evenodd" clip-rule="evenodd" d="M10 20C15.5228 20 20 15.5228 20 10C20 4.47715 15.5228 0 10 0C4.47715 0 0 4.47715 0 10C0 15.5228 4.47715 20 10 20ZM10 17C13.866 17 17 13.866 17 10C17 6.13401 13.866 3 10 3C6.13401 3 3 6.13401 3 10C3 13.866 6.13401 17 10 17Z" fill="#afaf99"/></g><g transform="translate(0,786.54) scale(1.573) rotate(0)"><path fill-rule="evenodd" clip-rule="evenodd" d="M10 20C15.5228 20 20 15.5228 20 10C20 4.47715 15.5228 0 10 0C4.47715 0 0 4.47715 0 10C0 15.5228 4.47715 20 10 20ZM10 17C13.866 17 17 13.866 17 10C17 6.13401 13.866 3 10 3C6.13401 3 3 6.13401 3 10C3 13.866 6.13401 17 10 17Z" fill="#453023"/></g><g transform="translate(31.46,786.54) scale(1.573) rotate(0)"><path fill-rule="evenodd" clip-rule="evenodd" d="M10 20C15.5228 20 20 15.5228 20 10C20 4.47715 15.5228 0 10 0C4.47715 0 0 4.47715 0 10C0 15.5228 4.47715 20 10 20ZM10 17C13.866 17 17 13.866 17 10C17 6.13401 13.866 3 10 3C6.13401 3 3 6.13401 3 10C3 13.866 6.13401 17 10 17Z" fill="#dbdbbf"/></g><rect x="62.92307692307692" y="755.0769230769231" width="62.92307692307692" height="62.92307692307692" fill="#050609"/><g transform="translate(62.92,755.08) scale(1.573) rotate(0)"><path fill-rule="evenodd" clip-rule="evenodd" d="M10 20C15.5228 20 20 15.5228 20 10C20 4.47715 15.5228 0 10 0C4.47715 0 0 4.47715 0 10C0 15.5228 4.47715 20 10 20ZM10 17C13.866 17 17 13.866 17 10C17 6.13401 13.866 3 10 3C6.13401 3 3 6.13401 3 10C3 13.866 6.13401 17 10 17Z" fill="#593d2b"/></g><g transform="translate(94.38,755.08) scale(1.573) rotate(0)"><path fill-rule="evenodd" clip-rule="evenodd" d="M10 20C15.5228 20 20 15.5228 20 10C20 4.47715 15.5228 0 10 0C4.47715 0 0 4.47715 0 10C0 15.5228 4.47715 20 10 20ZM10 17C13.866 17 17 13.866 17 10C17 6.13401 13.866 3 10 3C6.13401 3 3 6.13401 3 10C3 13.866 6.13401 17 10 17Z" fill="#170406"/></g><g transform="translate(62.92,786.54) scale(1.573) rotate(0)"><path fill-rule="evenodd" clip-rule="evenodd" d="M10 20C15.5228 20 20 15.5228 20 10C20 4.47715 15.5228 0 10 0C4.47715 0 0 4.47715 0 10C0 15.5228 4.47715 20 10 20ZM10 17C13.866 17 17 13.866 17 10C17 6.13401 13.866 3 10 3C6.13401 3 3 6.13401 3 10C3 13.866 6.13401 17 10 17Z" fill="#5c453a"/></g><g transform="translate(94.38,786.54) scale(1.573) rotate(0)"><path fill-rule="evenodd" clip-rule="evenodd" d="M10 20C15.5228 20 20 15.5228 20 10C20 4.47715 15.5228 0 10 0C4.47715 0 0 4.47715 0 10C0 15.5228 4.47715 20 10 20ZM10 17C13.866 17 17 13.866 17 10C17 6.13401 13.866 3 10 3C6.13401 3 3 6.13401 3 10C3 13.866 6.13401 17 10 17Z" fill="#553a2a"/></g><rect x="125.84615384615384" y="755.0769230769231" width="62.92307692307692" height="62.92307692307692" fill="#050609"/><g transform="translate(125.85,755.08) scale(1.573) rotate(0)"><path fill-rule="evenodd" clip-rule="evenodd" d="M10 20C15.5228 20 20 15.5228 20 10C20 4.47715 15.5228 0 10 0C4.47715 0 0 4.47715 0 10C0 15.5228 4.47715 20 10 20ZM10 17C13.866 17 17 13.866 17 10C17 6.13401 13.866 3 10 3C6.13401 3 3 6.13401 3 10C3 13.866 6.13401 17 10 17Z" fill="#4b4c44"/></g><g transform="translate(157.31,755.08) scale(1.573) rotate(0)"><path fill-rule="evenodd" clip-rule="evenodd" d="M10 20C15.5228 20 20 15.5228 20 10C20 4.47715 15.5228 0 10 0C4.47715 0 0 4.47715 0 10C0 15.5228 4.47715 20 10 20ZM10 17C13.866 17 17 13.866 17 10C17 6.13401 13.866 3 10 3C6.13401 3 3 6.13401 3 10C3 13.866 6.13401 17 10 17Z" fill="#1e0305"/></g><g transform="translate(125.85,786.54) scale(1.573) rotate(0)"><path fill-rule="evenodd" clip-rule="evenodd" d="M10 20C15.5228 20 20 15.5228 20 10C20 4.47715 15.5228 0 10 0C4.47715 0 0 4.47715 0 10C0 15.5228 4.47715 20 10 20ZM10 17C13.866 17 17 13.866 17 10C17 6.13401 13.866 3 10 3C6.13401 3 3 6.13401 3 10C3 13.866 6.13401 17 10 17Z" fill="#40312a"/></g><circle cx="173.04" cy="802.27" r="15.73" fill="#300102"/><rect x="188.76923076923077" y="755.0769230769231" width="62.92307692307692" height="62.92307692307692" fill="#050609"/><g transform="translate(188.77,755.08) scale(1.573) rotate(0)"><path fill-rule="evenodd" clip-rule="evenodd" d="M10 20C15.5228 20 20 15.5228 20 10C20 4.47715 15.5228 0 10 0C4.47715 0 0 4.47715 0 10C0 15.5228 4.47715 20 10 20ZM10 17C13.866 17 17 13.866 17 10C17 6.13401 13.866 3 10 3C6.13401 3 3 6.13401 3 10C3 13.866 6.13401 17 10 17Z" fill="#ae8268"/></g><g transform="translate(220.23,755.08) scale(1.573) rotate(0)"><path fill-rule="evenodd" clip-rule="evenodd" d="M10 20C15.5228 20 20 15.5228 20 10C20 4.47715 15.5228 0 10 0C4.47715 0 0 4.47715 0 10C0 15.5228 4.47715 20 10 20ZM10 17C13.866 17 17 13.866 17 10C17 6.13401 13.866 3 10 3C6.13401 3 3 6.13401 3 10C3 13.866 6.13401 17 10 17Z" fill="#7a5339"/></g><circle cx="204.5" cy="802.27" r="15.73" fill="#100507"/><g transform="translate(220.23,786.54) scale(1.573) rotate(0)"><path fill-rule="evenodd" clip-rule="evenodd" d="M10 20C15.5228 20 20 15.5228 20 10C20 4.47715 15.5228 0 10 0C4.47715 0 0 4.47715 0 10C0 15.5228 4.47715 20 10 20ZM10 17C13.866 17 17 13.866 17 10C17 6.13401 13.866 3 10 3C6.13401 3 3 6.13401 3 10C3 13.866 6.13401 17 10 17Z" fill="#1d1e1d"/></g><rect x="251.69230769230768" y="755.0769230769231" width="62.92307692307692" height="62.92307692307692" fill="#050609"/><g transform="translate(251.69,755.08) scale(1.573) rotate(0)"><path fill-rule="evenodd" clip-rule="evenodd" d="M10 20C15.5228 20 20 15.5228 20 10C20 4.47715 15.5228 0 10 0C4.47715 0 0 4.47715 0 10C0 15.5228 4.47715 20 10 20ZM10 17C13.866 17 17 13.866 17 10C17 6.13401 13.866 3 10 3C6.13401 3 3 6.13401 3 10C3 13.866 6.13401 17 10 17Z" fill="#0c0508"/></g><g transform="translate(283.15,755.08) scale(1.573) rotate(0)"><path fill-rule="evenodd" clip-rule="evenodd" d="M10 20C15.5228 20 20 15.5228 20 10C20 4.47715 15.5228 0 10 0C4.47715 0 0 4.47715 0 10C0 15.5228 4.47715 20 10 20ZM10 17C13.866 17 17 13.866 17 10C17 6.13401 13.866 3 10 3C6.13401 3 3 6.13401 3 10C3 13.866 6.13401 17 10 17Z" fill="#312622"/></g><g transform="translate(251.69,786.54) scale(1.573) rotate(0)"><path fill-rule="evenodd" clip-rule="evenodd" d="M10 20C15.5228 20 20 15.5228 20 10C20 4.47715 15.5228 0 10 0C4.47715 0 0 4.47715 0 10C0 15.5228 4.47715 20 10 20ZM10 17C13.866 17 17 13.866 17 10C17 6.13401 13.866 3 10 3C6.13401 3 3 6.13401 3 10C3 13.866 6.13401 17 10 17Z" fill="#4c3a31"/></g><g transform="translate(283.15,786.54) scale(1.573) rotate(0)"><path fill-rule="evenodd" clip-rule="evenodd" d="M10 20C15.5228 20 20 15.5228 20 10C20 4.47715 15.5228 0 10 0C4.47715 0 0 4.47715 0 10C0 15.5228 4.47715 20 10 20ZM10 17C13.866 17 17 13.866 17 10C17 6.13401 13.866 3 10 3C6.13401 3 3 6.13401 3 10C3 13.866 6.13401 17 10 17Z" fill="#ca9677"/></g><rect x="314.6153846153846" y="755.0769230769231" width="62.92307692307692" height="62.92307692307692" fill="#050609"/><g transform="translate(314.62,755.08) scale(1.573) rotate(0)"><path fill-rule="evenodd" clip-rule="evenodd" d="M10 20C15.5228 20 20 15.5228 20 10C20 4.47715 15.5228 0 10 0C4.47715 0 0 4.47715 0 10C0 15.5228 4.47715 20 10 20ZM10 17C13.866 17 17 13.866 17 10C17 6.13401 13.866 3 10 3C6.13401 3 3 6.13401 3 10C3 13.866 6.13401 17 10 17Z" fill="#07080a"/></g><circle cx="361.81" cy="770.8100000000001" r="15.73" fill="#d5d5b9"/><g transform="translate(314.62,786.54) scale(1.573) rotate(0)"><path fill-rule="evenodd" clip-rule="evenodd" d="M10 20C15.5228 20 20 15.5228 20 10C20 4.47715 15.5228 0 10 0C4.47715 0 0 4.47715 0 10C0 15.5228 4.47715 20 10 20ZM10 17C13.866 17 17 13.866 17 10C17 6.13401 13.866 3 10 3C6.13401 3 3 6.13401 3 10C3 13.866 6.13401 17 10 17Z" fill="#888878"/></g><circle cx="361.81" cy="802.27" r="15.73" fill="#737366"/><rect x="377.53846153846155" y="755.0769230769231" width="62.92307692307692" height="62.92307692307692" fill="#050609"/><g transform="translate(377.54,755.08) scale(1.573) rotate(0)"><path fill-rule="evenodd" clip-rule="evenodd" d="M10 20C15.5228 20 20 15.5228 20 10C20 4.47715 15.5228 0 10 0C4.47715 0 0 4.47715 0 10C0 15.5228 4.47715 20 10 20ZM10 17C13.866 17 17 13.866 17 10C17 6.13401 13.866 3 10 3C6.13401 3 3 6.13401 3 10C3 13.866 6.13401 17 10 17Z" fill="#31231b"/></g><g transform="translate(409,755.08) scale(1.573) rotate(0)"><path fill-rule="evenodd" clip-rule="evenodd" d="M10 20C15.5228 20 20 15.5228 20 10C20 4.47715 15.5228 0 10 0C4.47715 0 0 4.47715 0 10C0 15.5228 4.47715 20 10 20ZM10 17C13.866 17 17 13.866 17 10C17 6.13401 13.866 3 10 3C6.13401 3 3 6.13401 3 10C3 13.866 6.13401 17 10 17Z" fill="#161110"/></g><circle cx="393.27000000000004" cy="802.27" r="15.73" fill="#745747"/><g transform="translate(409,786.54) scale(1.573) rotate(0)"><path fill-rule="evenodd" clip-rule="evenodd" d="M10 20C15.5228 20 20 15.5228 20 10C20 4.47715 15.5228 0 10 0C4.47715 0 0 4.47715 0 10C0 15.5228 4.47715 20 10 20ZM10 17C13.866 17 17 13.866 17 10C17 6.13401 13.866 3 10 3C6.13401 3 3 6.13401 3 10C3 13.866 6.13401 17 10 17Z" fill="#070609"/></g><rect x="440.46153846153845" y="755.0769230769231" width="62.92307692307692" height="62.92307692307692" fill="#050609"/><circle cx="456.19" cy="770.8100000000001" r="15.73" fill="#4e4f47"/><g transform="translate(471.92,755.08) scale(1.573) rotate(0)"><path fill-rule="evenodd" clip-rule="evenodd" d="M10 20C15.5228 20 20 15.5228 20 10C20 4.47715 15.5228 0 10 0C4.47715 0 0 4.47715 0 10C0 15.5228 4.47715 20 10 20ZM10 17C13.866 17 17 13.866 17 10C17 6.13401 13.866 3 10 3C6.13401 3 3 6.13401 3 10C3 13.866 6.13401 17 10 17Z" fill="#2b1f19"/></g><g transform="translate(440.46,786.54) scale(1.573) rotate(0)"><path fill-rule="evenodd" clip-rule="evenodd" d="M10 20C15.5228 20 20 15.5228 20 10C20 4.47715 15.5228 0 10 0C4.47715 0 0 4.47715 0 10C0 15.5228 4.47715 20 10 20ZM10 17C13.866 17 17 13.866 17 10C17 6.13401 13.866 3 10 3C6.13401 3 3 6.13401 3 10C3 13.866 6.13401 17 10 17Z" fill="#131011"/></g><circle cx="487.65000000000003" cy="802.27" r="15.73" fill="#161717"/></g></svg>